<svg id="svg" version="1.1" xmlns="http://www.w3.org/2000/svg" xmlns:xlink="http://www.w3.org/1999/xlink" width="400" height="269.11636045494316" viewBox="0, 0, 400,269.11636045494316"><g id="svgg"><path id="path0" d="M23.688 0.837 C 11.538 2.214,3.809 9.623,1.678 21.935 C 0.949 26.145,0.956 241.728,1.685 245.945 C 3.855 258.497,11.785 265.824,24.500 267.026 C 28.832 267.436,375.389 267.249,377.120 266.836 C 390.197 263.717,396.538 256.771,397.834 244.146 C 398.227 240.310,398.227 27.524,397.834 23.687 C 396.474 10.443,388.296 2.161,375.254 0.822 C 371.855 0.473,26.768 0.488,23.688 0.837 M376.386 5.653 C 386.426 7.397,391.694 12.984,393.135 23.419 C 393.809 28.295,393.610 242.921,392.929 246.193 C 390.925 255.818,385.510 260.799,375.429 262.290 C 370.980 262.948,28.210 262.947,23.763 262.289 C 14.458 260.913,8.987 256.175,6.697 247.510 L 6.057 245.087 6.057 133.917 L 6.057 22.746 6.690 20.323 C 8.915 11.812,14.001 7.218,22.938 5.646 C 27.514 4.840,371.748 4.848,376.386 5.653 M92.867 22.525 C 87.430 23.243,82.041 24.250,80.888 24.763 C 80.592 24.894,79.926 25.083,79.408 25.181 C 78.890 25.279,78.102 25.520,77.658 25.717 C 77.214 25.913,76.306 26.256,75.639 26.478 C 74.543 26.844,70.754 28.700,68.387 30.031 C 66.209 31.256,61.381 35.286,60.296 36.785 C 60.074 37.092,59.234 38.161,58.429 39.161 C 57.071 40.849,56.582 41.591,55.676 43.338 C 55.484 43.708,55.264 44.071,55.187 44.145 C 55.062 44.265,54.150 46.231,52.750 49.394 C 52.488 49.987,52.187 50.895,52.081 51.413 C 51.976 51.931,51.794 52.476,51.678 52.624 C 51.187 53.250,49.547 61.605,49.535 63.540 C 49.532 64.065,49.408 64.616,49.260 64.764 C 49.112 64.912,48.928 67.257,48.850 70.000 C 48.772 72.731,48.656 75.723,48.591 76.649 L 48.472 78.331 74.707 78.331 L 100.942 78.331 100.942 50.202 L 100.942 22.073 98.318 22.113 C 96.874 22.134,94.421 22.320,92.867 22.525 M303.096 50.202 L 303.096 78.331 328.802 78.331 L 354.509 78.331 354.509 75.521 C 354.509 73.937,354.391 72.637,354.240 72.544 C 354.092 72.452,353.970 71.362,353.970 70.120 C 353.970 67.182,353.477 61.120,353.181 60.431 C 353.054 60.135,352.743 58.620,352.490 57.066 C 352.236 55.511,351.936 54.118,351.823 53.970 C 351.710 53.822,351.459 52.884,351.264 51.884 C 351.070 50.885,350.816 50.067,350.701 50.067 C 350.586 50.067,350.356 49.552,350.190 48.923 C 349.712 47.116,346.305 40.377,345.869 40.377 C 345.735 40.377,345.626 40.214,345.626 40.015 C 345.626 38.896,337.627 30.956,336.500 30.956 C 336.337 30.956,336.205 30.843,336.205 30.706 C 336.205 30.430,336.008 30.317,331.789 28.175 C 330.175 27.355,328.328 26.528,327.684 26.338 C 327.041 26.148,326.514 25.917,326.514 25.825 C 326.514 25.733,325.818 25.509,324.966 25.327 C 324.115 25.144,323.055 24.840,322.611 24.649 C 322.167 24.458,320.744 24.145,319.448 23.952 C 318.153 23.759,317.093 23.517,317.093 23.415 C 317.093 23.205,311.673 22.611,309.758 22.611 C 309.072 22.611,308.436 22.490,308.345 22.342 C 308.253 22.193,307.041 22.073,305.637 22.073 L 303.096 22.073 303.096 50.202 M40.547 203.297 C 40.331 204.101,40.330 216.387,40.545 217.463 C 40.687 218.171,40.836 218.304,41.487 218.304 L 42.261 218.304 42.261 210.498 L 42.261 202.692 41.485 202.692 C 40.908 202.692,40.667 202.847,40.547 203.297 M60.162 203.580 C 59.398 204.343,59.247 204.720,59.081 206.272 L 58.887 208.075 57.723 208.075 C 56.421 208.075,56.131 208.339,56.373 209.302 C 56.516 209.873,56.691 209.960,57.710 209.960 C 59.158 209.960,59.219 210.164,59.219 214.973 L 59.219 218.304 60.027 218.304 L 60.834 218.304 60.834 214.147 L 60.834 209.989 62.113 209.907 C 64.127 209.778,64.257 208.151,62.264 208.023 L 60.969 207.941 60.885 206.765 C 60.751 204.900,62.374 203.672,63.789 204.567 C 64.614 205.088,65.252 204.056,64.560 203.319 C 63.586 202.282,61.326 202.416,60.162 203.580 M66.699 205.300 L 66.622 207.941 65.462 208.024 C 63.694 208.152,63.818 209.778,65.605 209.907 L 66.743 209.990 66.817 214.080 L 66.891 218.170 67.699 218.170 L 68.506 218.170 68.580 214.080 L 68.655 209.990 69.792 209.907 C 71.633 209.774,71.714 208.075,69.879 208.075 L 68.660 208.075 68.583 205.451 L 68.506 202.826 67.641 202.743 L 66.776 202.659 66.699 205.300 M95.020 210.498 L 95.020 218.304 95.828 218.304 L 96.635 218.304 96.635 210.498 L 96.635 202.692 95.828 202.692 L 95.020 202.692 95.020 210.498 M116.555 210.498 L 116.555 218.304 117.362 218.304 C 118.156 218.304,118.170 218.280,118.179 216.891 C 118.194 214.471,119.216 213.675,120.323 215.222 C 122.445 218.188,122.564 218.304,123.476 218.304 C 124.633 218.304,124.610 218.197,122.944 215.854 C 120.327 212.176,120.405 212.764,122.228 210.475 C 124.089 208.140,124.107 208.075,122.905 208.075 C 122.099 208.075,121.796 208.304,120.415 209.955 C 118.169 212.639,118.170 212.639,118.170 207.268 L 118.170 202.692 117.362 202.692 L 116.555 202.692 116.555 210.498 M278.991 203.032 C 278.919 203.219,278.893 206.702,278.932 210.771 L 279.004 218.170 279.879 218.254 L 280.754 218.338 280.754 215.158 C 280.755 210.885,281.097 210.129,283.086 210.014 C 285.189 209.892,285.599 210.456,285.599 213.472 C 285.599 217.465,285.796 218.304,286.733 218.304 L 287.524 218.304 287.436 214.603 C 287.342 210.627,287.102 209.747,285.868 208.841 C 284.867 208.107,282.884 207.913,281.816 208.446 C 281.334 208.686,280.898 208.883,280.847 208.883 C 280.796 208.883,280.754 207.490,280.754 205.787 L 280.754 202.692 279.938 202.692 C 279.489 202.692,279.063 202.845,278.991 203.032 M291.961 203.941 C 291.867 204.628,291.790 205.839,291.790 206.632 L 291.790 208.075 290.562 208.075 C 288.713 208.075,288.791 209.774,290.646 209.908 L 291.790 209.991 291.790 212.898 C 291.790 217.459,291.964 218.304,292.903 218.304 L 293.674 218.304 293.674 214.132 L 293.674 209.960 294.886 209.960 C 296.734 209.960,296.797 208.157,294.953 208.024 L 293.809 207.941 293.732 205.316 L 293.655 202.692 292.894 202.692 C 292.192 202.692,292.119 202.790,291.961 203.941 M320.054 210.498 L 320.054 218.304 320.828 218.304 C 321.881 218.304,321.938 217.902,321.938 210.498 C 321.938 203.094,321.881 202.692,320.828 202.692 L 320.054 202.692 320.054 210.498 M341.651 210.413 L 341.723 218.170 342.530 218.170 C 343.319 218.170,343.340 218.136,343.421 216.692 C 343.498 215.335,344.007 214.266,344.576 214.266 C 344.693 214.266,345.472 215.175,346.308 216.285 C 347.678 218.106,347.917 218.304,348.745 218.304 C 349.939 218.304,349.967 218.389,347.779 215.325 C 345.525 212.167,345.558 212.752,347.499 210.376 C 349.172 208.330,349.233 208.075,348.055 208.075 C 347.192 208.075,346.890 208.313,345.236 210.296 C 343.479 212.403,343.495 212.430,343.412 207.335 L 343.338 202.826 342.459 202.742 L 341.580 202.657 341.651 210.413 M167.878 203.410 C 167.779 203.508,167.699 204.905,167.699 206.513 L 167.699 209.437 166.919 208.861 C 164.948 207.404,161.856 208.160,160.400 210.455 C 157.480 215.060,162.953 220.464,167.409 217.376 C 169.336 216.041,169.438 215.643,169.534 209.085 L 169.620 203.230 168.839 203.230 C 168.409 203.230,167.977 203.311,167.878 203.410 M99.865 205.114 C 99.361 206.058,100.206 207.067,101.270 206.791 C 102.430 206.490,102.139 204.576,100.933 204.576 C 100.429 204.576,100.052 204.766,99.865 205.114 M261.478 204.960 C 260.959 206.312,262.216 207.358,263.302 206.478 C 263.837 206.045,263.872 205.900,263.590 205.281 C 263.228 204.487,261.746 204.262,261.478 204.960 M325.062 205.002 C 324.740 205.843,324.905 206.480,325.505 206.706 C 326.624 207.129,327.589 206.117,327.042 205.095 C 326.698 204.451,325.299 204.386,325.062 205.002 M48.444 208.313 C 43.965 209.777,43.984 216.754,48.471 218.040 C 51.184 218.818,54.679 217.356,53.581 215.901 L 53.096 215.257 52.155 215.839 C 50.624 216.785,48.893 216.646,47.729 215.481 C 46.275 214.027,46.520 213.881,50.673 213.728 C 54.718 213.579,54.761 213.564,54.723 212.247 C 54.646 209.513,51.261 207.392,48.444 208.313 M86.537 208.360 C 82.967 209.399,82.264 214.939,85.399 217.330 C 87.091 218.621,89.928 218.523,91.655 217.114 L 92.463 216.455 91.897 215.879 L 91.331 215.303 90.417 215.860 C 87.454 217.667,84.255 215.234,85.327 211.988 C 85.970 210.038,88.426 209.305,90.363 210.486 C 91.216 211.007,91.229 211.007,91.843 210.486 L 92.463 209.961 91.722 209.300 C 90.495 208.205,88.385 207.822,86.537 208.360 M99.985 208.421 C 99.912 208.612,99.885 210.883,99.926 213.468 L 100.000 218.170 100.875 218.254 L 101.750 218.338 101.750 213.207 L 101.750 208.075 100.934 208.075 C 100.485 208.075,100.058 208.231,99.985 208.421 M107.757 208.372 C 105.063 209.151,103.756 213.710,105.537 216.119 C 107.265 218.456,110.736 218.990,112.808 217.237 L 113.728 216.459 113.145 215.864 L 112.562 215.269 111.830 215.844 C 110.002 217.283,106.947 216.229,106.503 214.007 C 105.876 210.876,109.370 208.600,111.830 210.535 L 112.562 211.111 113.123 210.550 C 114.540 209.133,110.623 207.542,107.757 208.372 M138.929 208.659 C 135.480 210.366,135.261 215.499,138.550 217.532 C 139.952 218.399,142.290 218.412,143.443 217.560 L 144.268 216.951 144.438 217.628 C 144.571 218.160,144.778 218.304,145.407 218.304 L 146.207 218.304 146.118 214.848 C 145.973 209.171,143.024 206.632,138.929 208.659 M151.419 208.481 C 150.907 208.758,150.582 208.812,150.521 208.630 C 150.469 208.473,150.010 208.345,149.500 208.345 L 148.575 208.345 148.648 213.257 L 148.721 218.170 149.529 218.170 L 150.336 218.170 150.471 214.630 C 150.642 210.147,151.443 209.077,153.870 210.091 C 155.098 210.604,155.169 210.829,155.316 214.670 L 155.451 218.170 156.258 218.170 L 157.066 218.170 157.066 214.670 C 157.066 210.775,156.822 209.839,155.561 208.908 C 154.494 208.119,152.471 207.910,151.419 208.481 M261.768 208.403 C 261.692 208.603,261.662 210.883,261.703 213.468 L 261.777 218.170 262.584 218.170 L 263.392 218.170 263.392 213.190 L 263.392 208.210 262.650 208.125 C 262.209 208.074,261.852 208.187,261.768 208.403 M269.783 208.289 C 264.941 209.807,265.508 217.540,270.508 218.173 C 273.040 218.493,273.406 218.593,273.977 219.126 C 275.721 220.750,274.114 222.205,270.570 222.212 C 267.646 222.218,266.668 222.960,268.666 223.656 C 273.914 225.486,278.386 221.102,274.906 217.540 C 274.616 217.243,274.668 217.045,275.208 216.403 C 278.365 212.652,274.465 206.820,269.783 208.289 M311.808 208.261 C 308.989 208.814,307.468 213.634,309.322 216.141 C 311.034 218.456,314.513 218.982,316.576 217.237 L 317.497 216.459 316.914 215.864 L 316.330 215.269 315.599 215.844 C 314.427 216.766,312.176 216.659,311.150 215.633 C 308.290 212.773,312.423 208.037,315.599 210.535 L 316.330 211.111 316.891 210.550 C 318.217 209.225,314.782 207.678,311.808 208.261 M325.168 213.190 L 325.168 218.304 325.936 218.304 L 326.704 218.304 326.884 215.747 C 326.982 214.341,326.982 212.039,326.884 210.633 L 326.704 208.075 325.936 208.075 L 325.168 208.075 325.168 213.190 M333.220 208.317 C 327.462 210.192,329.589 219.026,335.600 218.202 C 337.868 217.891,339.038 216.815,338.261 215.753 C 337.907 215.268,337.866 215.271,336.951 215.836 C 333.823 217.769,330.373 214.783,332.031 211.578 C 332.907 209.884,335.128 209.417,336.951 210.543 C 337.932 211.150,338.627 210.839,338.627 209.796 C 338.627 208.776,334.922 207.763,333.220 208.317 M253.241 208.554 C 253.198 208.661,253.163 210.868,253.163 213.459 L 253.163 218.170 253.970 218.170 L 254.778 218.170 254.913 214.643 C 255.077 210.341,255.209 210.095,257.227 210.332 C 259.028 210.543,259.536 210.081,258.535 209.142 C 257.859 208.506,253.458 208.018,253.241 208.554 M51.491 209.983 C 52.122 210.270,53.028 211.511,53.028 212.087 C 53.028 212.283,52.034 212.382,50.067 212.382 C 46.814 212.382,46.621 212.264,47.682 210.916 C 48.600 209.749,50.146 209.370,51.491 209.983 M142.736 210.454 C 143.881 211.209,144.262 211.874,144.271 213.132 C 144.296 216.401,140.283 217.634,138.496 214.907 C 136.709 212.179,140.043 208.678,142.736 210.454 M166.200 210.484 C 169.030 212.349,167.498 216.789,164.177 216.343 C 162.909 216.173,162.261 215.668,161.642 214.364 C 160.364 211.669,163.695 208.833,166.200 210.484 M272.937 210.400 C 275.804 212.093,274.570 216.420,271.220 216.420 C 270.488 216.420,269.999 216.192,269.242 215.498 C 266.465 212.953,269.700 208.488,272.937 210.400 M97.116 231.965 L 97.039 234.590 95.879 234.673 C 94.165 234.797,94.234 236.392,95.962 236.608 L 97.039 236.743 97.113 240.848 L 97.188 244.953 97.957 244.953 C 98.966 244.953,99.050 244.590,99.054 240.190 L 99.058 236.639 100.202 236.557 C 102.057 236.422,102.135 234.724,100.286 234.724 L 99.058 234.724 99.054 232.638 C 99.049 229.778,98.904 229.341,97.960 229.341 L 97.193 229.341 97.116 231.965 M256.470 231.965 L 256.393 234.590 255.233 234.673 C 253.460 234.801,253.590 236.427,255.384 236.557 L 256.528 236.639 256.528 240.796 L 256.528 244.953 257.295 244.953 L 258.063 244.953 258.236 242.732 C 258.331 241.511,258.409 239.633,258.410 238.560 L 258.412 236.608 259.483 236.608 C 261.382 236.608,261.386 234.850,259.489 234.676 L 258.546 234.590 258.304 231.965 L 258.062 229.341 257.305 229.341 L 256.547 229.341 256.470 231.965 M343.805 237.079 L 343.876 244.818 344.684 244.818 L 345.491 244.818 345.563 237.079 L 345.634 229.341 344.684 229.341 L 343.733 229.341 343.805 237.079 M48.643 229.778 C 48.538 229.883,48.452 231.281,48.452 232.885 C 48.452 236.081,48.482 236.033,46.972 235.262 C 43.514 233.500,39.722 236.408,40.201 240.456 C 40.780 245.341,47.173 246.540,49.467 242.193 C 50.840 239.593,50.092 228.329,48.643 229.778 M134.511 229.778 C 134.406 229.883,134.320 231.281,134.320 232.885 C 134.320 234.489,134.259 235.801,134.185 235.801 C 134.110 235.801,133.597 235.559,133.045 235.262 C 129.093 233.145,124.582 237.686,126.482 241.868 C 128.236 245.731,133.550 245.883,135.506 242.127 C 136.135 240.917,136.438 234.528,136.016 231.359 C 135.806 229.784,135.171 229.117,134.511 229.778 M62.764 235.302 C 59.339 236.997,59.144 241.975,62.418 244.146 C 63.761 245.036,66.003 245.068,67.202 244.213 C 68.272 243.449,68.371 243.455,68.371 244.280 C 68.371 245.969,69.896 245.137,70.100 243.338 C 70.824 236.936,67.288 233.062,62.764 235.302 M75.799 235.004 C 70.560 236.572,72.183 244.953,77.726 244.953 C 80.772 244.953,81.846 247.326,79.377 248.603 C 78.581 249.015,76.104 249.066,74.874 248.696 C 74.208 248.495,73.837 249.457,74.373 249.993 C 75.123 250.743,78.731 250.825,80.107 250.123 C 82.564 248.868,83.123 246.479,81.429 244.466 C 80.813 243.735,80.795 243.639,81.202 243.302 C 85.124 240.057,80.850 233.494,75.799 235.004 M106.326 235.008 C 101.856 236.888,102.449 244.027,107.141 244.820 C 112.631 245.747,115.397 238.820,110.876 235.468 C 110.052 234.857,107.337 234.583,106.326 235.008 M148.969 235.235 C 145.447 236.834,145.211 241.923,148.556 244.148 C 149.883 245.032,152.143 245.064,153.333 244.216 C 154.213 243.589,154.509 243.651,154.509 244.459 C 154.509 244.828,154.713 244.953,155.316 244.953 C 156.211 244.953,156.277 244.563,156.127 240.110 C 155.985 235.899,152.593 233.589,148.969 235.235 M157.739 234.911 C 157.739 235.275,159.916 243.483,160.210 244.227 C 161.010 246.253,163.661 242.717,163.661 239.624 C 163.661 238.512,164.434 239.819,165.155 242.148 L 165.981 244.818 166.890 244.818 C 167.788 244.818,167.805 244.796,168.302 242.934 C 169.238 239.428,169.825 237.285,170.108 236.341 C 170.530 234.936,170.467 234.724,169.634 234.724 C 168.853 234.724,168.110 236.472,167.551 239.623 C 167.150 241.884,166.786 241.709,165.824 238.791 C 164.932 236.085,164.922 236.070,164.052 236.070 C 163.188 236.070,163.169 236.098,162.367 238.552 C 161.201 242.119,161.264 242.181,159.629 235.868 C 159.362 234.837,157.739 234.015,157.739 234.911 M265.680 235.026 C 263.075 236.061,261.809 239.435,263.066 241.988 C 265.208 246.338,271.178 245.627,272.443 240.871 C 273.441 237.125,269.332 233.574,265.680 235.026 M288.082 235.294 C 285.697 236.475,284.711 240.088,286.142 242.404 C 287.764 245.028,291.456 245.682,293.809 243.762 L 294.616 243.103 294.034 242.511 L 293.452 241.919 292.522 242.494 C 288.964 244.693,285.342 240.323,288.284 237.381 C 289.277 236.388,291.556 236.269,292.679 237.153 L 293.372 237.698 293.922 237.108 C 295.449 235.469,290.704 233.996,288.082 235.294 M299.865 235.008 C 297.623 235.951,296.253 238.764,296.888 241.122 C 297.740 244.287,301.555 245.924,303.951 244.153 C 304.875 243.470,304.923 243.472,305.028 244.213 C 305.164 245.169,306.518 245.217,306.755 244.274 C 308.181 238.592,304.170 233.198,299.865 235.008 M311.849 235.130 C 311.337 235.407,311.013 235.461,310.952 235.279 C 310.900 235.122,310.443 234.993,309.937 234.993 L 309.017 234.993 309.017 238.724 C 309.017 244.075,309.175 245.003,310.065 244.900 L 310.767 244.818 310.904 241.454 C 311.056 237.701,311.283 237.060,312.611 236.622 C 314.957 235.847,315.772 237.023,315.951 241.442 L 316.094 244.953 316.862 244.953 L 317.631 244.953 317.631 241.386 C 317.630 237.467,317.348 236.456,315.969 235.446 C 314.996 234.733,312.884 234.571,311.849 235.130 M322.831 235.247 C 318.088 237.400,319.984 244.858,325.260 244.800 C 327.897 244.772,329.996 243.116,328.447 242.287 C 328.087 242.094,327.749 242.162,327.168 242.545 C 323.772 244.784,319.962 240.066,322.985 237.364 C 324.045 236.417,326.554 236.343,327.534 237.230 C 328.008 237.659,328.069 237.649,328.625 237.057 C 330.119 235.467,325.515 234.028,322.831 235.247 M334.455 235.048 C 329.661 236.719,330.684 244.159,335.803 244.860 C 338.175 245.185,340.879 243.586,339.794 242.501 L 339.245 241.952 338.330 242.509 C 336.659 243.528,334.219 243.031,333.536 241.531 C 333.027 240.414,333.128 240.377,336.724 240.377 C 341.107 240.377,341.713 239.951,340.661 237.609 C 339.569 235.179,337.055 234.142,334.455 235.048 M52.695 235.215 C 52.656 235.315,52.660 237.547,52.704 240.175 L 52.783 244.953 53.579 244.953 L 54.374 244.953 54.374 241.709 C 54.374 237.316,54.649 236.747,56.672 236.956 C 58.973 237.194,59.404 235.952,57.246 235.302 C 56.271 235.008,52.802 234.942,52.695 235.215 M138.732 239.922 L 138.762 244.818 139.502 244.903 L 140.242 244.989 140.246 241.808 C 140.252 237.550,140.990 236.240,142.991 236.938 C 144.215 237.364,144.920 236.591,144.076 235.747 C 143.570 235.241,143.146 235.147,141.095 235.091 L 138.703 235.025 138.732 239.922 M338.379 237.126 C 339.937 238.684,339.565 239.031,336.339 239.031 C 333.954 239.031,333.513 238.965,333.513 238.609 C 333.513 236.568,336.815 235.562,338.379 237.126 M46.779 237.028 C 50.152 239.391,46.930 244.667,43.433 242.506 C 42.269 241.787,41.992 241.246,41.992 239.695 C 41.992 237.271,44.852 235.679,46.779 237.028 M66.860 237.170 C 68.817 238.710,68.713 241.299,66.643 242.561 C 63.705 244.353,60.307 240.214,62.612 237.651 C 63.661 236.485,65.696 236.255,66.860 237.170 M79.296 237.052 C 81.233 238.321,81.157 241.430,79.160 242.609 C 76.216 244.349,73.041 240.698,75.004 237.830 C 75.839 236.612,78.021 236.216,79.296 237.052 M110.395 237.653 C 111.946 239.204,111.727 241.176,109.855 242.509 C 107.754 244.005,104.789 242.191,105.041 239.564 C 105.326 236.600,108.286 235.544,110.395 237.653 M133.070 237.418 C 135.929 239.928,132.786 244.511,129.555 242.541 C 129.081 242.252,128.506 241.653,128.277 241.210 C 126.691 238.144,130.482 235.145,133.070 237.418 M152.961 237.142 C 156.138 239.641,152.947 244.643,149.525 242.528 C 146.871 240.887,148.018 236.608,151.112 236.608 C 151.871 236.608,152.521 236.796,152.961 237.142 M269.353 237.127 C 271.097 238.190,271.205 240.801,269.565 242.241 C 267.118 244.389,263.624 241.924,264.582 238.725 C 265.156 236.808,267.528 236.014,269.353 237.127 M303.468 237.170 C 305.509 238.775,305.336 241.507,303.121 242.652 C 299.684 244.429,296.703 239.247,299.962 237.159 C 301.071 236.449,302.557 236.454,303.468 237.170 " stroke="none" fill="#aa8b9b" fill-rule="evenodd"></path><path id="path1" d="M24.697 0.459 C 25.030 0.523,25.575 0.523,25.908 0.459 C 26.242 0.395,25.969 0.342,25.303 0.342 C 24.637 0.342,24.364 0.395,24.697 0.459 M373.284 0.459 C 373.617 0.523,374.162 0.523,374.495 0.459 C 374.828 0.395,374.556 0.342,373.890 0.342 C 373.223 0.342,372.951 0.395,373.284 0.459 M11.560 11.238 L 10.633 12.248 11.642 11.320 C 12.197 10.810,12.651 10.356,12.651 10.311 C 12.651 10.105,12.424 10.299,11.560 11.238 M8.479 15.612 C 8.249 16.057,8.122 16.420,8.196 16.420 C 8.270 16.420,8.519 16.057,8.748 15.612 C 8.978 15.168,9.105 14.805,9.031 14.805 C 8.957 14.805,8.709 15.168,8.479 15.612 M106.057 50.162 L 106.057 78.331 131.794 78.331 L 157.532 78.331 157.337 72.611 C 157.229 69.465,157.027 66.749,156.887 66.576 C 156.747 66.404,156.637 65.616,156.643 64.827 C 156.657 62.722,156.087 58.412,155.795 58.412 C 155.655 58.412,155.621 58.053,155.720 57.604 C 155.818 57.160,155.790 56.797,155.659 56.797 C 155.528 56.797,155.269 55.891,155.083 54.784 C 154.897 53.676,154.642 52.707,154.516 52.629 C 154.390 52.551,154.204 51.973,154.103 51.344 C 154.001 50.716,153.772 49.960,153.593 49.664 C 153.414 49.367,153.122 48.626,152.945 48.015 C 152.508 46.506,150.161 41.971,148.997 40.386 C 148.475 39.675,148.048 38.957,148.048 38.790 C 148.048 38.396,141.418 31.763,141.024 31.763 C 140.859 31.763,140.282 31.419,139.743 30.998 C 138.439 29.980,135.243 28.154,133.984 27.707 C 133.429 27.509,132.974 27.267,132.974 27.168 C 132.974 27.069,132.429 26.835,131.763 26.649 C 131.097 26.462,130.552 26.221,130.552 26.112 C 130.552 26.004,129.825 25.761,128.937 25.572 C 128.048 25.383,127.322 25.144,127.322 25.039 C 127.322 24.935,126.141 24.631,124.697 24.365 C 123.254 24.098,121.952 23.790,121.803 23.679 C 121.655 23.568,120.202 23.332,118.573 23.155 C 116.945 22.977,115.414 22.728,115.171 22.603 C 114.928 22.477,112.778 22.289,110.393 22.184 L 106.057 21.993 106.057 50.162 M292.598 22.275 C 292.598 22.386,291.855 22.435,290.946 22.383 C 290.037 22.332,289.038 22.420,288.725 22.579 C 288.412 22.738,287.974 22.844,287.752 22.815 C 287.066 22.726,282.369 23.510,282.369 23.714 C 282.369 23.820,282.126 23.843,281.829 23.765 C 281.532 23.688,281.138 23.742,280.954 23.886 C 280.770 24.029,279.680 24.303,278.533 24.494 C 277.386 24.685,276.447 24.924,276.447 25.027 C 276.447 25.129,276.295 25.225,276.110 25.240 C 275.318 25.305,273.319 25.945,272.948 26.254 C 272.725 26.438,272.150 26.672,271.669 26.775 C 271.188 26.877,270.794 27.079,270.794 27.224 C 270.794 27.369,270.673 27.413,270.525 27.322 C 270.377 27.230,270.256 27.274,270.256 27.419 C 270.256 27.564,269.891 27.763,269.445 27.861 C 269.000 27.959,268.485 28.186,268.301 28.367 C 268.118 28.548,267.423 28.912,266.757 29.177 C 266.091 29.442,265.486 29.745,265.411 29.851 C 265.337 29.957,264.640 30.451,263.863 30.949 C 263.085 31.446,262.450 31.955,262.450 32.078 C 262.450 32.201,262.282 32.301,262.077 32.301 C 261.872 32.301,261.240 32.816,260.671 33.445 C 260.103 34.075,259.596 34.551,259.546 34.504 C 259.412 34.378,257.066 36.581,257.066 36.833 C 257.066 36.950,256.703 37.394,256.258 37.820 C 255.814 38.245,255.451 38.752,255.451 38.947 C 255.451 39.141,255.350 39.300,255.227 39.300 C 254.953 39.300,253.297 41.815,253.297 42.231 C 253.297 42.396,253.176 42.530,253.028 42.530 C 252.880 42.530,252.759 42.712,252.759 42.934 C 252.759 43.156,252.657 43.338,252.533 43.338 C 252.408 43.338,252.161 43.822,251.983 44.415 C 251.806 45.007,251.544 45.491,251.402 45.491 C 251.260 45.491,251.144 45.598,251.144 45.728 C 251.144 45.858,250.939 46.433,250.689 47.006 C 250.439 47.579,250.223 48.109,250.209 48.183 C 250.194 48.257,250.052 48.560,249.893 48.856 C 249.564 49.468,249.149 50.908,249.216 51.211 C 249.240 51.322,249.154 51.413,249.026 51.413 C 248.897 51.413,248.643 52.170,248.462 53.096 C 248.281 54.021,248.030 54.902,247.905 55.054 C 247.657 55.357,246.753 60.333,246.770 61.306 C 246.775 61.639,246.691 61.911,246.581 61.911 C 246.264 61.911,245.665 70.357,245.739 73.792 C 245.783 75.825,245.704 76.988,245.514 77.106 C 245.354 77.205,245.222 77.521,245.222 77.809 C 245.222 78.322,245.670 78.331,271.736 78.331 L 298.250 78.331 298.250 50.202 L 298.250 22.073 295.424 22.073 C 293.869 22.073,292.598 22.164,292.598 22.275 M312.719 22.801 C 313.052 22.865,313.597 22.865,313.930 22.801 C 314.263 22.737,313.991 22.684,313.324 22.684 C 312.658 22.684,312.386 22.737,312.719 22.801 M6.254 23.957 C 6.254 24.475,6.309 24.687,6.377 24.428 C 6.444 24.169,6.444 23.745,6.377 23.486 C 6.309 23.227,6.254 23.439,6.254 23.957 M320.290 24.032 C 320.420 24.162,320.874 24.225,321.300 24.172 C 322.011 24.083,321.992 24.064,321.064 23.936 C 320.485 23.856,320.155 23.897,320.290 24.032 M398.204 25.437 C 398.205 26.474,398.254 26.865,398.312 26.306 C 398.370 25.748,398.369 24.900,398.310 24.422 C 398.251 23.944,398.203 24.401,398.204 25.437 M6.055 133.917 C 6.055 193.580,6.086 217.948,6.124 188.067 C 6.162 158.186,6.162 109.370,6.124 79.588 C 6.086 49.805,6.055 74.253,6.055 133.917 M353.778 65.276 C 353.780 66.016,353.832 66.287,353.894 65.878 C 353.956 65.469,353.955 64.863,353.891 64.532 C 353.827 64.201,353.776 64.536,353.778 65.276 M48.546 70.256 C 48.546 71.514,48.593 72.029,48.649 71.400 C 48.706 70.771,48.706 69.741,48.649 69.112 C 48.593 68.483,48.546 68.997,48.546 70.256 M315.794 78.533 C 322.852 78.573,334.480 78.573,341.635 78.533 C 348.790 78.493,343.015 78.460,328.802 78.460 C 314.590 78.460,308.736 78.493,315.794 78.533 M48.732 115.906 C 48.760 146.986,48.931 155.803,49.520 156.519 C 49.646 156.672,49.880 157.510,50.040 158.381 C 50.201 159.253,50.435 160.101,50.562 160.266 C 50.688 160.430,50.947 161.141,51.137 161.844 C 51.327 162.547,51.594 163.122,51.729 163.122 C 51.864 163.122,51.945 163.274,51.908 163.459 C 51.812 163.946,53.784 167.927,54.708 169.112 C 55.142 169.667,55.421 170.121,55.328 170.121 C 55.236 170.121,55.283 170.273,55.432 170.458 C 57.002 172.403,58.143 173.911,58.143 174.041 C 58.143 174.255,63.543 179.605,64.103 179.946 C 64.346 180.094,65.400 180.912,66.444 181.763 C 67.488 182.614,68.418 183.311,68.510 183.311 C 68.603 183.311,69.212 183.678,69.864 184.127 C 70.867 184.817,72.069 185.497,75.036 187.055 C 75.456 187.275,76.978 187.969,79.273 188.987 C 79.717 189.184,80.202 189.356,80.350 189.369 C 80.498 189.382,80.876 189.534,81.191 189.708 C 81.506 189.881,82.263 190.103,82.873 190.201 C 83.484 190.298,83.984 190.470,83.984 190.583 C 83.984 190.695,84.801 190.938,85.801 191.122 C 86.800 191.306,87.747 191.559,87.905 191.683 C 88.063 191.807,89.304 192.060,90.664 192.245 C 92.024 192.431,93.136 192.690,93.136 192.822 C 93.136 192.955,93.686 192.980,94.364 192.878 C 95.042 192.777,95.735 192.808,95.912 192.949 C 96.421 193.355,103.744 193.556,107.133 193.257 C 108.836 193.107,110.713 192.952,111.306 192.914 C 111.898 192.876,112.564 192.770,112.786 192.680 C 113.008 192.590,114.280 192.369,115.612 192.188 C 116.945 192.008,118.156 191.774,118.304 191.668 C 118.452 191.563,119.300 191.315,120.188 191.117 C 121.077 190.919,121.925 190.676,122.073 190.575 C 122.221 190.475,122.948 190.234,123.688 190.040 C 124.428 189.846,125.158 189.593,125.309 189.478 C 125.461 189.362,126.188 189.068,126.925 188.825 C 127.661 188.581,129.475 187.775,130.956 187.034 C 134.555 185.233,135.224 184.852,135.478 184.455 C 135.596 184.270,135.816 184.118,135.967 184.118 C 136.117 184.118,136.638 183.816,137.123 183.445 C 137.608 183.075,138.145 182.773,138.316 182.773 C 138.487 182.773,138.627 182.648,138.627 182.497 C 138.627 182.345,138.900 182.112,139.233 181.978 C 139.773 181.762,142.761 179.235,144.953 177.142 C 146.226 175.925,149.240 172.294,149.453 171.719 C 149.559 171.432,149.771 171.198,149.924 171.198 C 150.077 171.198,150.202 171.065,150.202 170.903 C 150.202 170.741,150.474 170.226,150.807 169.759 C 151.542 168.728,151.950 167.998,153.124 165.623 C 154.553 162.731,154.981 161.709,155.186 160.700 C 155.292 160.182,155.500 159.606,155.650 159.421 C 155.799 159.236,155.830 159.085,155.720 159.085 C 155.610 159.085,155.642 158.933,155.792 158.748 C 155.941 158.563,156.150 157.655,156.255 156.729 C 156.360 155.804,156.528 155.047,156.628 155.047 C 156.729 155.047,156.764 154.550,156.706 153.943 C 156.648 153.336,156.726 152.579,156.880 152.261 C 157.065 151.876,157.214 140.123,157.324 117.160 L 157.488 82.638 103.095 82.638 L 48.702 82.638 48.732 115.906 M245.771 115.906 C 245.799 146.986,245.970 155.803,246.559 156.519 C 246.685 156.672,246.919 157.510,247.079 158.381 C 247.240 159.253,247.474 160.101,247.601 160.266 C 247.727 160.430,247.986 161.141,248.176 161.844 C 248.367 162.547,248.633 163.122,248.768 163.122 C 248.903 163.122,248.984 163.274,248.948 163.459 C 248.851 163.946,250.823 167.927,251.747 169.112 C 252.181 169.667,252.460 170.121,252.367 170.121 C 252.275 170.121,252.322 170.273,252.471 170.458 C 254.041 172.403,255.182 173.911,255.182 174.041 C 255.182 174.255,260.582 179.605,261.142 179.946 C 261.385 180.094,262.439 180.912,263.483 181.763 C 264.527 182.614,265.509 183.311,265.665 183.311 C 265.821 183.311,265.949 183.432,265.949 183.580 C 265.949 183.728,266.082 183.849,266.244 183.849 C 266.406 183.849,266.901 184.107,267.344 184.422 C 268.429 185.195,271.538 186.843,274.024 187.962 C 276.412 189.037,277.103 189.322,277.389 189.347 C 277.537 189.359,277.916 189.517,278.230 189.697 C 278.545 189.876,279.302 190.103,279.912 190.201 C 280.523 190.298,281.023 190.470,281.023 190.583 C 281.023 190.695,281.841 190.938,282.840 191.122 C 283.839 191.306,284.786 191.559,284.944 191.683 C 285.102 191.807,286.343 192.060,287.703 192.245 C 289.063 192.431,290.175 192.688,290.175 192.817 C 290.175 192.946,290.781 192.969,291.521 192.867 C 292.321 192.757,292.867 192.785,292.867 192.937 C 292.867 193.336,300.720 193.557,304.172 193.255 C 305.875 193.106,307.752 192.952,308.345 192.914 C 308.937 192.876,309.603 192.770,309.825 192.680 C 310.047 192.590,311.319 192.369,312.651 192.188 C 313.984 192.008,315.195 191.774,315.343 191.668 C 315.491 191.563,316.339 191.315,317.227 191.117 C 318.116 190.919,318.964 190.676,319.112 190.575 C 319.260 190.475,319.987 190.234,320.727 190.040 C 321.467 189.846,322.197 189.593,322.348 189.478 C 322.500 189.362,323.227 189.068,323.964 188.825 C 324.700 188.581,326.514 187.775,327.995 187.034 C 331.594 185.233,332.263 184.852,332.517 184.455 C 332.635 184.270,332.855 184.118,333.006 184.118 C 333.156 184.118,333.677 183.816,334.162 183.445 C 334.647 183.075,335.184 182.773,335.355 182.773 C 335.526 182.773,335.666 182.648,335.666 182.495 C 335.666 182.342,335.898 182.130,336.182 182.024 C 337.711 181.451,345.931 173.236,346.492 171.720 C 346.598 171.433,346.810 171.198,346.963 171.198 C 347.116 171.198,347.241 171.065,347.241 170.903 C 347.241 170.741,347.513 170.226,347.846 169.759 C 348.581 168.728,348.989 167.998,350.163 165.623 C 351.640 162.633,352.009 161.718,352.364 160.162 C 352.550 159.347,352.784 158.620,352.883 158.546 C 353.095 158.388,353.706 154.470,353.703 153.284 C 353.702 152.832,353.807 152.348,353.936 152.207 C 354.066 152.066,354.251 136.394,354.349 117.295 L 354.527 82.638 300.134 82.638 L 245.741 82.638 245.771 115.906 M40.431 202.476 C 40.066 202.841,39.949 218.175,40.310 218.397 C 40.421 218.466,40.511 214.931,40.511 210.542 L 40.511 202.563 41.319 202.390 C 42.069 202.230,42.077 202.215,41.440 202.185 C 41.063 202.168,40.608 202.299,40.431 202.476 M61.934 202.249 C 61.995 202.302,62.470 202.423,62.988 202.518 C 63.651 202.640,63.810 202.613,63.526 202.426 C 63.161 202.187,61.667 202.021,61.934 202.249 M67.026 202.257 C 67.026 202.315,67.383 202.414,67.819 202.478 C 68.255 202.542,68.551 202.495,68.476 202.374 C 68.343 202.158,67.026 202.052,67.026 202.257 M116.450 202.374 C 116.375 202.495,116.671 202.542,117.107 202.478 C 117.543 202.414,117.900 202.315,117.900 202.257 C 117.900 202.052,116.583 202.158,116.450 202.374 M291.844 202.476 C 291.630 202.691,291.538 203.666,291.573 205.370 L 291.625 207.941 291.775 205.251 L 291.925 202.561 292.732 202.389 C 293.481 202.230,293.490 202.215,292.853 202.185 C 292.476 202.168,292.022 202.299,291.844 202.476 M341.764 202.356 C 341.695 202.468,342.018 202.559,342.482 202.558 C 343.202 202.557,343.352 202.676,343.502 203.365 C 343.666 204.116,343.680 204.124,343.710 203.486 C 343.758 202.438,342.253 201.564,341.764 202.356 M42.342 204.038 C 42.342 204.852,42.392 205.185,42.454 204.778 C 42.516 204.371,42.516 203.705,42.454 203.297 C 42.392 202.890,42.342 203.223,42.342 204.038 M280.837 204.172 C 280.839 205.061,280.889 205.392,280.949 204.908 C 281.009 204.424,281.007 203.697,280.946 203.293 C 280.885 202.888,280.836 203.284,280.837 204.172 M293.742 203.634 C 293.745 204.226,293.800 204.437,293.865 204.102 C 293.929 203.767,293.927 203.282,293.859 203.025 C 293.792 202.768,293.739 203.042,293.742 203.634 M167.529 206.191 C 167.529 207.746,167.573 208.382,167.628 207.604 C 167.682 206.827,167.682 205.555,167.628 204.778 C 167.573 204.001,167.529 204.637,167.529 206.191 M341.435 210.902 C 341.435 214.455,341.474 215.871,341.520 214.049 C 341.567 212.227,341.567 209.320,341.520 207.589 C 341.473 205.858,341.435 207.349,341.435 210.902 M68.724 206.326 C 68.726 207.214,68.776 207.545,68.836 207.061 C 68.896 206.577,68.894 205.851,68.833 205.446 C 68.772 205.042,68.723 205.437,68.724 206.326 M116.132 211.036 C 116.132 214.515,116.170 215.939,116.217 214.199 C 116.264 212.460,116.264 209.613,116.217 207.873 C 116.170 206.134,116.132 207.557,116.132 211.036 M94.595 210.363 C 94.595 213.324,94.634 214.572,94.682 213.137 C 94.731 211.701,94.731 209.279,94.683 207.753 C 94.635 206.228,94.595 207.402,94.595 210.363 M58.758 206.595 C 58.760 207.335,58.812 207.606,58.874 207.197 C 58.936 206.788,58.934 206.182,58.871 205.851 C 58.807 205.520,58.756 205.855,58.758 206.595 M56.094 208.190 C 56.013 208.402,55.992 208.856,56.047 209.200 C 56.121 209.660,56.183 209.558,56.283 208.816 C 56.424 207.771,56.350 207.524,56.094 208.190 M99.776 207.986 C 99.527 208.234,99.549 218.243,99.798 218.397 C 99.909 218.466,100.000 216.111,100.000 213.164 C 100.000 210.217,99.990 207.806,99.978 207.806 C 99.965 207.806,99.874 207.887,99.776 207.986 M101.746 209.635 L 101.877 211.440 101.963 209.853 C 102.010 208.980,101.951 208.168,101.832 208.048 C 101.712 207.929,101.674 208.643,101.746 209.635 M289.203 208.190 C 289.122 208.402,289.101 208.856,289.156 209.200 C 289.230 209.660,289.292 209.558,289.392 208.816 C 289.533 207.771,289.459 207.524,289.203 208.190 M325.002 208.194 C 324.921 208.408,324.901 208.801,324.959 209.069 C 325.025 209.373,325.117 209.227,325.204 208.681 C 325.351 207.764,325.256 207.535,325.002 208.194 M346.282 208.681 L 345.491 209.556 346.366 208.765 C 347.182 208.028,347.365 207.806,347.157 207.806 C 347.110 207.806,346.717 208.200,346.282 208.681 M252.860 208.470 C 252.776 208.687,252.771 209.021,252.847 209.211 C 252.923 209.400,252.995 209.292,253.007 208.969 C 253.021 208.583,253.236 208.342,253.634 208.265 L 254.240 208.149 253.625 208.112 C 253.288 208.092,252.943 208.253,252.860 208.470 M255.355 208.282 C 255.285 208.396,255.701 208.444,256.281 208.389 C 256.861 208.333,257.335 208.240,257.335 208.182 C 257.335 207.981,255.483 208.075,255.355 208.282 M327.164 213.190 C 327.164 215.929,327.204 217.049,327.253 215.680 C 327.302 214.310,327.302 212.069,327.253 210.700 C 327.204 209.330,327.164 210.451,327.164 213.190 M46.147 209.489 L 45.357 210.363 46.231 209.573 C 47.047 208.836,47.230 208.614,47.022 208.614 C 46.976 208.614,46.582 209.007,46.147 209.489 M144.011 208.698 C 144.011 208.744,144.404 209.138,144.886 209.573 L 145.760 210.363 144.970 209.489 C 144.233 208.673,144.011 208.490,144.011 208.698 M258.785 209.068 C 259.064 209.405,259.187 209.807,259.072 210.010 C 258.910 210.295,258.941 210.298,259.237 210.024 C 259.542 209.741,259.494 209.584,258.950 209.082 C 258.312 208.493,258.308 208.492,258.785 209.068 M330.939 209.489 L 330.148 210.363 331.023 209.573 C 331.838 208.836,332.021 208.614,331.813 208.614 C 331.767 208.614,331.373 209.007,330.939 209.489 M62.315 209.960 L 60.969 210.144 62.232 210.187 C 62.926 210.210,63.569 210.108,63.661 209.960 C 63.752 209.812,63.790 209.709,63.744 209.733 C 63.698 209.756,63.055 209.858,62.315 209.960 M64.311 210.044 C 64.432 210.166,65.002 210.224,65.577 210.174 L 66.622 210.083 65.356 209.953 C 64.659 209.882,64.189 209.923,64.311 210.044 M295.020 209.960 L 293.809 210.148 294.937 210.188 C 295.557 210.211,296.140 210.108,296.231 209.960 C 296.323 209.812,296.360 209.709,296.315 209.731 C 296.269 209.753,295.686 209.856,295.020 209.960 M338.308 210.557 C 337.910 210.969,337.677 211.306,337.790 211.306 C 338.045 211.306,339.299 209.990,339.144 209.885 C 339.082 209.843,338.706 210.145,338.308 210.557 M57.595 210.150 L 58.667 210.259 58.752 214.147 L 58.838 218.036 58.827 214.065 L 58.816 210.094 57.670 210.068 L 56.524 210.041 57.595 210.150 M68.757 210.314 C 68.682 210.509,68.660 211.933,68.709 213.477 L 68.796 216.285 68.853 213.273 L 68.910 210.260 70.054 210.157 L 71.198 210.054 70.045 210.007 C 69.304 209.976,68.844 210.086,68.757 210.314 M87.506 210.057 C 87.567 210.111,88.157 210.224,88.815 210.308 C 89.590 210.407,89.875 210.374,89.623 210.214 C 89.263 209.987,87.253 209.838,87.506 210.057 M109.223 210.150 C 109.557 210.214,110.042 210.212,110.299 210.145 C 110.557 210.077,110.283 210.025,109.690 210.028 C 109.098 210.030,108.888 210.086,109.223 210.150 M118.479 210.700 C 118.439 211.571,118.772 211.856,119.137 211.264 C 119.252 211.078,119.212 211.026,119.037 211.134 C 118.861 211.243,118.700 211.019,118.632 210.570 C 118.526 209.871,118.517 209.879,118.479 210.700 M152.423 210.145 C 152.682 210.213,153.106 210.213,153.365 210.145 C 153.624 210.077,153.412 210.022,152.894 210.022 C 152.376 210.022,152.164 210.077,152.423 210.145 M283.311 210.205 C 283.903 210.302,284.569 210.478,284.791 210.595 C 285.013 210.711,284.960 210.616,284.673 210.383 C 284.385 210.150,283.719 209.975,283.192 209.993 L 282.234 210.027 283.311 210.205 M290.435 210.150 L 291.507 210.259 291.592 214.147 L 291.678 218.036 291.667 214.065 L 291.655 210.094 290.509 210.068 L 289.363 210.041 290.435 210.150 M312.991 210.150 C 313.326 210.214,313.810 210.212,314.068 210.145 C 314.325 210.077,314.051 210.025,313.459 210.028 C 312.867 210.030,312.656 210.086,312.991 210.150 M334.074 210.057 C 334.135 210.111,334.725 210.224,335.383 210.308 C 336.158 210.407,336.443 210.374,336.191 210.214 C 335.831 209.987,333.821 209.838,334.074 210.057 M278.681 211.844 C 278.681 212.658,278.731 212.991,278.793 212.584 C 278.855 212.177,278.855 211.511,278.793 211.104 C 278.731 210.697,278.681 211.030,278.681 211.844 M263.620 213.190 C 263.620 214.448,263.667 214.963,263.723 214.334 C 263.780 213.705,263.780 212.675,263.723 212.046 C 263.667 211.417,263.620 211.931,263.620 213.190 M157.304 214.805 C 157.304 216.655,157.347 217.413,157.400 216.487 C 157.452 215.562,157.452 214.048,157.400 213.122 C 157.347 212.197,157.304 212.954,157.304 214.805 M44.761 213.055 C 44.763 213.795,44.815 214.066,44.877 213.657 C 44.939 213.248,44.937 212.642,44.873 212.311 C 44.809 211.980,44.759 212.315,44.761 213.055 M150.565 213.997 C 150.565 215.256,150.611 215.771,150.668 215.141 C 150.725 214.512,150.725 213.483,150.668 212.853 C 150.611 212.224,150.565 212.739,150.565 213.997 M48.654 212.312 C 49.431 212.366,50.703 212.366,51.480 212.312 C 52.258 212.257,51.622 212.213,50.067 212.213 C 48.513 212.213,47.877 212.257,48.654 212.312 M82.975 213.055 C 82.978 213.647,83.033 213.858,83.098 213.523 C 83.162 213.188,83.159 212.704,83.092 212.446 C 83.025 212.189,82.972 212.463,82.975 213.055 M254.911 215.263 C 254.838 217.070,254.873 218.453,254.989 218.336 C 255.105 218.220,255.165 216.741,255.122 215.051 L 255.044 211.978 254.911 215.263 M266.017 213.055 C 266.020 213.647,266.075 213.858,266.139 213.523 C 266.204 213.188,266.201 212.704,266.134 212.446 C 266.066 212.189,266.014 212.463,266.017 213.055 M310.437 213.190 C 310.437 213.856,310.489 214.129,310.553 213.795 C 310.618 213.462,310.618 212.917,310.553 212.584 C 310.489 212.251,310.437 212.524,310.437 213.190 M329.548 213.190 C 329.548 213.856,329.601 214.129,329.665 213.795 C 329.729 213.462,329.729 212.917,329.665 212.584 C 329.601 212.251,329.548 212.524,329.548 213.190 M106.657 213.190 C 106.657 213.708,106.713 213.920,106.780 213.661 C 106.848 213.402,106.848 212.978,106.780 212.719 C 106.713 212.460,106.657 212.672,106.657 213.190 M155.148 215.209 C 155.148 216.837,155.193 217.469,155.246 216.612 C 155.300 215.755,155.299 214.423,155.245 213.651 C 155.191 212.879,155.147 213.580,155.148 215.209 M161.570 213.190 C 161.570 213.708,161.625 213.920,161.693 213.661 C 161.761 213.402,161.761 212.978,161.693 212.719 C 161.625 212.460,161.570 212.672,161.570 213.190 M167.492 213.190 C 167.492 213.708,167.547 213.920,167.615 213.661 C 167.683 213.402,167.683 212.978,167.615 212.719 C 167.547 212.460,167.492 212.672,167.492 213.190 M276.509 213.190 C 276.509 213.708,276.565 213.920,276.632 213.661 C 276.700 213.402,276.700 212.978,276.632 212.719 C 276.565 212.460,276.509 212.672,276.509 213.190 M60.832 216.475 C 60.759 217.616,60.797 218.452,60.915 218.333 C 61.033 218.214,61.093 217.280,61.047 216.259 L 60.964 214.401 60.832 216.475 M53.516 215.823 C 53.914 216.234,54.291 216.537,54.353 216.495 C 54.508 216.389,53.254 215.074,52.999 215.074 C 52.886 215.074,53.119 215.411,53.516 215.823 M101.746 216.744 C 101.674 217.737,101.712 218.451,101.832 218.331 C 101.951 218.211,102.010 217.399,101.963 216.526 L 101.877 214.939 101.746 216.744 M338.308 215.823 C 338.706 216.234,339.082 216.537,339.144 216.495 C 339.299 216.389,338.045 215.074,337.790 215.074 C 337.677 215.074,337.910 215.411,338.308 215.823 M42.257 217.013 C 42.185 217.857,42.225 218.450,42.345 218.329 C 42.465 218.209,42.523 217.518,42.475 216.794 L 42.387 215.478 42.257 217.013 M105.787 216.824 C 106.290 217.342,106.761 217.766,106.835 217.766 C 106.909 217.766,106.559 217.342,106.057 216.824 C 105.554 216.306,105.083 215.882,105.009 215.882 C 104.935 215.882,105.285 216.306,105.787 216.824 M148.349 217.010 C 148.332 217.704,148.413 218.332,148.531 218.404 C 148.648 218.476,148.701 218.090,148.650 217.545 C 148.492 215.880,148.382 215.684,148.349 217.010 M49.596 216.336 C 49.855 216.404,50.279 216.404,50.538 216.336 C 50.797 216.269,50.585 216.213,50.067 216.213 C 49.549 216.213,49.337 216.269,49.596 216.336 M87.820 216.336 C 88.079 216.404,88.503 216.404,88.762 216.336 C 89.021 216.269,88.809 216.213,88.291 216.213 C 87.773 216.213,87.561 216.269,87.820 216.336 M109.085 216.336 C 109.344 216.404,109.768 216.404,110.027 216.336 C 110.286 216.269,110.074 216.213,109.556 216.213 C 109.038 216.213,108.826 216.269,109.085 216.336 M136.743 216.235 C 136.743 216.281,137.137 216.675,137.618 217.110 L 138.493 217.900 137.702 217.026 C 136.965 216.210,136.743 216.027,136.743 216.235 M160.162 216.235 C 160.162 216.281,160.555 216.675,161.036 217.110 L 161.911 217.900 161.121 217.026 C 160.384 216.210,160.162 216.027,160.162 216.235 M168.085 217.026 L 167.295 217.900 168.170 217.110 C 168.985 216.373,169.168 216.151,168.960 216.151 C 168.914 216.151,168.520 216.544,168.085 217.026 M312.853 216.336 C 313.112 216.404,313.536 216.404,313.795 216.336 C 314.055 216.269,313.843 216.213,313.324 216.213 C 312.806 216.213,312.594 216.269,312.853 216.336 M334.388 216.336 C 334.647 216.404,335.071 216.404,335.330 216.336 C 335.589 216.269,335.377 216.213,334.859 216.213 C 334.341 216.213,334.129 216.269,334.388 216.336 M293.737 217.227 C 293.737 217.746,293.792 217.958,293.860 217.699 C 293.928 217.439,293.928 217.015,293.860 216.756 C 293.792 216.497,293.737 216.709,293.737 217.227 M324.899 217.615 C 324.899 217.977,324.998 218.334,325.120 218.409 C 325.241 218.484,325.288 218.188,325.224 217.752 C 325.082 216.790,324.899 216.713,324.899 217.615 M270.458 222.263 C 270.791 222.327,271.336 222.327,271.669 222.263 C 272.002 222.198,271.729 222.146,271.063 222.146 C 270.397 222.146,270.124 222.198,270.458 222.263 M270.458 224.416 C 270.791 224.480,271.336 224.480,271.669 224.416 C 272.002 224.352,271.729 224.299,271.063 224.299 C 270.397 224.299,270.124 224.352,270.458 224.416 M97.081 229.004 C 97.012 229.115,97.417 229.206,97.981 229.206 C 98.545 229.206,98.950 229.115,98.882 229.004 C 98.813 228.893,98.408 228.802,97.981 228.802 C 97.554 228.802,97.149 228.893,97.081 229.004 M257.335 229.039 L 258.277 229.206 258.427 231.898 L 258.577 234.590 258.629 232.019 C 258.687 229.165,258.516 228.781,257.214 228.838 C 256.399 228.873,256.400 228.874,257.335 229.039 M256.321 230.148 C 256.321 230.666,256.376 230.878,256.444 230.619 C 256.512 230.360,256.512 229.936,256.444 229.677 C 256.376 229.418,256.321 229.630,256.321 230.148 M343.601 237.214 L 343.607 245.087 344.684 245.087 L 345.760 245.087 345.780 243.472 L 345.799 241.857 345.700 243.405 L 345.600 244.953 344.675 244.953 L 343.750 244.953 343.672 237.147 L 343.595 229.340 343.601 237.214 M345.712 230.956 C 345.712 231.918,345.761 232.312,345.821 231.830 C 345.880 231.349,345.880 230.562,345.821 230.081 C 345.761 229.600,345.712 229.993,345.712 230.956 M136.313 236.070 C 136.313 238.365,136.354 239.303,136.405 238.156 C 136.455 237.009,136.455 235.131,136.405 233.984 C 136.354 232.836,136.313 233.775,136.313 236.070 M47.997 234.051 C 47.999 234.939,48.049 235.270,48.109 234.787 C 48.169 234.303,48.168 233.576,48.106 233.171 C 48.045 232.767,47.996 233.163,47.997 234.051 M260.813 235.465 C 260.942 236.394,260.961 236.412,261.049 235.701 C 261.102 235.276,261.039 234.821,260.910 234.692 C 260.774 234.556,260.733 234.886,260.813 235.465 M54.523 234.963 C 54.690 235.129,56.870 235.005,57.060 234.818 C 57.130 234.749,56.556 234.721,55.784 234.756 C 55.012 234.791,54.445 234.884,54.523 234.963 M141.521 234.914 C 141.854 234.978,142.399 234.978,142.732 234.914 C 143.065 234.850,142.793 234.797,142.127 234.797 C 141.460 234.797,141.188 234.850,141.521 234.914 M286.524 236.137 L 285.734 237.012 286.608 236.222 C 287.424 235.485,287.607 235.262,287.399 235.262 C 287.353 235.262,286.959 235.656,286.524 236.137 M144.534 235.873 C 144.839 236.278,144.819 236.439,144.394 236.950 L 143.896 237.550 144.551 236.946 C 145.193 236.352,145.195 236.333,144.690 235.869 C 144.198 235.419,144.191 235.419,144.534 235.873 M336.003 236.525 C 336.262 236.592,336.686 236.592,336.945 236.525 C 337.204 236.457,336.992 236.402,336.474 236.402 C 335.956 236.402,335.744 236.457,336.003 236.525 M50.399 237.416 C 50.399 237.934,50.454 238.146,50.522 237.887 C 50.590 237.628,50.590 237.204,50.522 236.945 C 50.454 236.686,50.399 236.898,50.399 237.416 M266.580 236.814 C 266.409 236.923,266.852 237.012,267.564 237.012 C 268.276 237.012,268.719 236.923,268.548 236.814 C 268.377 236.706,267.934 236.617,267.564 236.617 C 267.194 236.617,266.751 236.706,266.580 236.814 M300.673 236.881 C 300.389 237.067,300.548 237.095,301.211 236.973 C 302.372 236.760,302.591 236.607,301.727 236.612 C 301.369 236.615,300.895 236.736,300.673 236.881 M334.300 237.349 L 333.647 238.089 334.455 237.416 C 334.899 237.046,335.313 236.713,335.375 236.676 C 335.436 236.639,335.367 236.608,335.220 236.608 C 335.073 236.608,334.659 236.941,334.300 237.349 M52.567 238.089 C 52.569 238.829,52.621 239.100,52.683 238.691 C 52.745 238.282,52.743 237.676,52.679 237.345 C 52.615 237.014,52.565 237.349,52.567 238.089 M258.519 240.781 C 258.520 243.001,258.562 243.874,258.612 242.720 C 258.663 241.566,258.662 239.749,258.611 238.682 C 258.561 237.616,258.519 238.560,258.519 240.781 M315.475 239.783 L 315.607 241.857 315.690 240.000 C 315.736 238.978,315.677 238.045,315.558 237.926 C 315.440 237.807,315.403 238.643,315.475 239.783 M140.615 241.454 C 140.615 243.304,140.658 244.061,140.711 243.136 C 140.763 242.211,140.763 240.697,140.711 239.771 C 140.658 238.846,140.615 239.603,140.615 241.454 M338.896 238.448 C 338.896 238.662,338.060 238.780,336.272 238.818 L 333.647 238.874 336.180 238.963 C 338.522 239.046,339.574 238.811,339.080 238.318 C 338.979 238.216,338.896 238.275,338.896 238.448 M285.134 239.838 C 285.134 240.505,285.186 240.777,285.251 240.444 C 285.315 240.111,285.315 239.566,285.251 239.233 C 285.186 238.900,285.134 239.172,285.134 239.838 M82.700 239.838 C 82.700 240.357,82.756 240.569,82.824 240.310 C 82.891 240.050,82.891 239.627,82.824 239.367 C 82.756 239.108,82.700 239.320,82.700 239.838 M113.387 239.838 C 113.387 240.357,113.442 240.569,113.510 240.310 C 113.578 240.050,113.578 239.627,113.510 239.367 C 113.442 239.108,113.387 239.320,113.387 239.838 M148.111 239.838 C 148.111 240.357,148.166 240.569,148.234 240.310 C 148.302 240.050,148.302 239.627,148.234 239.367 C 148.166 239.108,148.111 239.320,148.111 239.838 M306.965 241.857 C 306.965 243.486,307.010 244.117,307.063 243.261 C 307.117 242.404,307.116 241.072,307.062 240.300 C 307.008 239.528,306.964 240.229,306.965 241.857 M70.354 241.857 C 70.355 243.338,70.400 243.909,70.454 243.127 C 70.509 242.345,70.508 241.133,70.453 240.435 C 70.398 239.737,70.353 240.377,70.354 241.857 M398.204 242.396 C 398.205 243.432,398.254 243.823,398.312 243.265 C 398.370 242.706,398.369 241.858,398.310 241.380 C 398.251 240.902,398.203 241.359,398.204 242.396 M327.472 241.967 C 327.389 242.101,327.538 242.154,327.803 242.085 C 328.820 241.819,329.386 242.969,328.652 243.812 L 328.010 244.549 328.796 243.816 L 329.583 243.083 328.944 242.403 C 328.285 241.702,327.736 241.539,327.472 241.967 M256.367 243.941 C 256.393 245.077,256.402 245.088,257.405 245.116 C 258.406 245.144,258.407 245.143,257.487 245.033 C 256.625 244.930,256.549 244.844,256.449 243.859 L 256.340 242.795 256.367 243.941 M331.898 242.884 C 331.898 242.930,332.291 243.324,332.773 243.759 L 333.647 244.549 332.857 243.674 C 332.120 242.859,331.898 242.676,331.898 242.884 M6.254 243.876 C 6.254 244.394,6.309 244.606,6.377 244.347 C 6.444 244.088,6.444 243.664,6.377 243.405 C 6.309 243.146,6.254 243.358,6.254 243.876 M52.666 245.020 C 52.735 245.131,53.140 245.222,53.567 245.222 C 53.993 245.222,54.399 245.131,54.467 245.020 C 54.536 244.909,54.131 244.818,53.567 244.818 C 53.003 244.818,52.597 244.909,52.666 245.020 M65.007 244.953 L 63.661 245.137 64.924 245.180 C 65.618 245.203,66.261 245.101,66.353 244.953 C 66.444 244.805,66.482 244.703,66.436 244.726 C 66.390 244.749,65.747 244.851,65.007 244.953 M68.278 245.020 C 68.347 245.131,68.752 245.222,69.179 245.222 C 69.606 245.222,70.011 245.131,70.080 245.020 C 70.148 244.909,69.743 244.818,69.179 244.818 C 68.615 244.818,68.210 244.909,68.278 245.020 M97.141 245.028 C 97.271 245.158,97.725 245.221,98.150 245.168 C 98.862 245.079,98.843 245.060,97.914 244.932 C 97.335 244.851,97.006 244.893,97.141 245.028 M108.210 244.953 L 106.729 245.134 108.075 245.174 C 108.816 245.196,109.603 245.096,109.825 244.953 C 110.047 244.809,110.108 244.710,109.960 244.732 C 109.812 244.754,109.024 244.853,108.210 244.953 M131.090 244.953 L 129.610 245.134 130.956 245.174 C 131.696 245.196,132.483 245.096,132.705 244.953 C 132.927 244.809,132.988 244.710,132.840 244.732 C 132.692 244.754,131.904 244.853,131.090 244.953 M155.316 244.953 L 154.374 245.151 155.233 245.187 C 155.706 245.206,156.167 245.101,156.258 244.953 C 156.350 244.805,156.387 244.700,156.342 244.719 C 156.296 244.739,155.834 244.844,155.316 244.953 M301.615 244.953 L 300.269 245.137 301.480 245.176 C 302.147 245.197,302.873 245.096,303.096 244.953 C 303.318 244.809,303.378 244.709,303.230 244.730 C 303.082 244.751,302.355 244.851,301.615 244.953 M304.947 245.028 C 305.077 245.158,305.531 245.221,305.956 245.168 C 306.668 245.079,306.649 245.060,305.720 244.932 C 305.142 244.851,304.812 244.893,304.947 245.028 M310.094 244.953 L 309.152 245.151 310.011 245.187 C 310.483 245.206,310.945 245.101,311.036 244.953 C 311.128 244.805,311.165 244.700,311.120 244.719 C 311.074 244.739,310.612 244.844,310.094 244.953 M315.923 245.020 C 315.992 245.131,316.397 245.222,316.824 245.222 C 317.250 245.222,317.656 245.131,317.724 245.020 C 317.793 244.909,317.388 244.818,316.824 244.818 C 316.260 244.818,315.855 244.909,315.923 245.020 M44.486 245.146 C 44.895 245.208,45.500 245.206,45.831 245.142 C 46.162 245.078,45.828 245.028,45.087 245.030 C 44.347 245.032,44.076 245.084,44.486 245.146 M76.652 245.143 C 76.987 245.208,77.471 245.205,77.729 245.138 C 77.986 245.070,77.712 245.018,77.120 245.021 C 76.528 245.024,76.317 245.079,76.652 245.143 M138.964 245.138 C 139.223 245.206,139.647 245.206,139.906 245.138 C 140.165 245.071,139.953 245.015,139.435 245.015 C 138.917 245.015,138.705 245.071,138.964 245.138 M150.404 245.143 C 150.737 245.207,151.282 245.207,151.615 245.143 C 151.948 245.079,151.676 245.026,151.009 245.026 C 150.343 245.026,150.071 245.079,150.404 245.143 M160.636 245.143 C 160.971 245.208,161.455 245.205,161.712 245.138 C 161.970 245.070,161.696 245.018,161.104 245.021 C 160.511 245.024,160.301 245.079,160.636 245.143 M166.285 245.143 C 166.618 245.207,167.164 245.207,167.497 245.143 C 167.830 245.079,167.557 245.026,166.891 245.026 C 166.225 245.026,165.952 245.079,166.285 245.143 M266.824 245.146 C 267.231 245.207,267.897 245.207,268.304 245.146 C 268.711 245.084,268.378 245.034,267.564 245.034 C 266.750 245.034,266.417 245.084,266.824 245.146 M289.977 245.146 C 290.386 245.208,290.992 245.206,291.323 245.142 C 291.654 245.078,291.319 245.028,290.579 245.030 C 289.838 245.032,289.568 245.084,289.977 245.146 M324.428 245.146 C 324.835 245.207,325.501 245.207,325.908 245.146 C 326.316 245.084,325.983 245.034,325.168 245.034 C 324.354 245.034,324.021 245.084,324.428 245.146 M335.734 245.146 C 336.141 245.207,336.807 245.207,337.214 245.146 C 337.621 245.084,337.288 245.034,336.474 245.034 C 335.659 245.034,335.326 245.084,335.734 245.146 M76.921 251.065 C 77.256 251.130,77.740 251.127,77.998 251.060 C 78.255 250.992,77.981 250.940,77.389 250.943 C 76.797 250.946,76.586 251.001,76.921 251.065 M387.349 256.662 C 386.695 257.328,386.220 257.873,386.294 257.873 C 386.368 257.873,386.964 257.328,387.618 256.662 C 388.272 255.996,388.746 255.451,388.672 255.451 C 388.598 255.451,388.002 255.996,387.349 256.662 M25.230 267.489 C 25.707 267.548,26.555 267.549,27.114 267.491 C 27.672 267.433,27.281 267.384,26.245 267.383 C 25.209 267.382,24.752 267.430,25.230 267.489 M372.201 267.489 C 372.679 267.548,373.527 267.549,374.086 267.491 C 374.644 267.433,374.253 267.384,373.217 267.383 C 372.180 267.382,371.723 267.430,372.201 267.489 " stroke="none" fill="#4b3b53" fill-rule="evenodd"></path></g></svg>