<svg id="svg" version="1.1" xmlns="http://www.w3.org/2000/svg" xmlns:xlink="http://www.w3.org/1999/xlink" width="400" height="269.11636045494316" viewBox="0, 0, 400,269.11636045494316"><g id="svgg"><path id="path0" d="M23.822 0.829 C 11.428 2.106,3.468 9.946,1.570 22.746 C 1.039 26.329,1.037 241.486,1.569 245.087 C 3.492 258.132,11.394 265.701,24.457 267.015 C 28.308 267.402,370.693 267.406,374.775 267.019 C 384.018 266.142,391.576 261.473,394.793 254.653 C 395.319 253.537,395.841 252.441,395.953 252.217 C 396.586 250.950,397.594 246.546,397.836 243.997 C 398.220 239.946,398.225 27.937,397.841 23.888 C 396.639 11.212,390.016 3.853,377.254 1.015 C 375.637 0.655,27.290 0.472,23.822 0.829 M377.886 5.850 C 386.498 7.843,391.470 13.282,392.997 22.380 C 393.833 27.364,393.854 240.385,393.019 245.272 C 391.928 251.651,389.863 255.417,385.790 258.458 C 384.281 259.585,381.305 261.103,380.606 261.103 C 380.376 261.104,380.073 261.217,379.933 261.356 C 379.792 261.495,378.184 261.858,376.359 262.163 L 373.040 262.719 199.642 262.717 C 27.974 262.716,26.214 262.711,23.149 262.182 C 14.123 260.626,9.145 256.307,6.802 247.999 L 6.057 245.357 6.057 133.917 L 6.057 22.476 6.664 20.188 C 9.030 11.280,14.193 7.033,24.764 5.297 C 25.135 5.236,104.172 5.205,200.404 5.227 L 375.370 5.268 377.886 5.850 M83.715 33.371 C 83.345 33.493,82.648 33.606,82.166 33.621 C 81.684 33.635,80.838 33.890,80.286 34.186 C 79.733 34.482,79.014 34.724,78.687 34.724 C 78.361 34.724,78.019 34.845,77.927 34.993 C 77.836 35.141,77.496 35.266,77.171 35.271 C 76.847 35.276,76.346 35.457,76.059 35.675 C 75.772 35.892,75.330 36.070,75.078 36.070 C 74.826 36.070,74.550 36.252,74.465 36.474 C 74.380 36.696,74.079 36.878,73.796 36.878 C 73.514 36.878,73.125 37.067,72.933 37.299 C 72.740 37.531,72.222 37.907,71.781 38.135 C 70.820 38.632,70.607 38.797,68.789 40.444 C 68.012 41.147,67.256 41.723,67.108 41.723 C 66.960 41.723,66.729 41.958,66.596 42.246 C 66.462 42.533,65.746 43.412,65.004 44.197 C 62.833 46.498,61.373 48.594,61.373 49.412 C 61.373 49.610,61.221 49.868,61.036 49.987 C 60.604 50.263,59.931 51.689,59.344 53.567 C 59.090 54.381,58.758 55.350,58.607 55.720 C 58.295 56.484,57.936 58.210,57.697 60.100 C 57.608 60.806,57.429 61.449,57.300 61.529 C 56.990 61.721,56.997 68.460,57.308 68.789 C 57.440 68.929,57.622 69.559,57.711 70.188 C 57.801 70.818,57.947 71.847,58.037 72.476 C 58.127 73.106,58.355 73.802,58.543 74.024 C 58.731 74.246,58.946 74.791,59.021 75.236 C 59.194 76.256,59.696 77.658,60.323 78.869 C 62.823 83.697,63.442 84.320,64.921 83.497 C 66.113 82.833,66.293 81.399,65.344 80.129 C 64.992 79.658,64.539 78.849,64.338 78.331 C 64.136 77.813,63.749 77.067,63.479 76.674 C 63.209 76.281,62.988 75.807,62.988 75.619 C 62.988 75.431,62.826 75.087,62.629 74.853 C 61.935 74.032,60.979 68.254,61.000 65.007 C 61.030 60.397,61.632 57.376,63.149 54.219 C 63.653 53.172,64.065 52.235,64.065 52.138 C 64.065 51.914,66.166 48.453,66.630 47.914 C 67.072 47.400,70.980 43.456,71.874 42.622 C 72.245 42.276,72.681 41.992,72.841 41.992 C 73.002 41.992,73.352 41.750,73.620 41.454 C 73.888 41.157,74.229 40.915,74.377 40.915 C 74.525 40.915,75.043 40.612,75.529 40.242 C 76.014 39.872,76.530 39.569,76.676 39.569 C 76.822 39.569,77.284 39.403,77.704 39.199 C 80.036 38.065,81.021 37.682,82.234 37.441 C 82.974 37.294,84.549 36.973,85.734 36.728 C 88.229 36.212,92.128 36.317,95.155 36.982 C 96.191 37.209,97.557 37.505,98.191 37.640 C 98.824 37.775,99.561 38.082,99.827 38.323 C 100.094 38.564,100.560 38.762,100.863 38.762 C 101.166 38.762,101.565 38.943,101.750 39.166 C 101.934 39.388,102.260 39.569,102.474 39.569 C 102.687 39.569,103.259 39.872,103.745 40.242 C 104.230 40.612,104.766 40.915,104.936 40.915 C 105.951 40.915,112.655 47.416,113.637 49.351 C 113.949 49.967,114.295 50.532,114.405 50.606 C 114.763 50.845,116.472 54.467,116.946 55.989 C 117.199 56.803,117.530 57.833,117.681 58.277 C 118.597 60.967,118.668 70.128,117.784 71.478 C 117.552 71.832,117.362 72.304,117.362 72.529 C 117.362 73.439,115.931 77.113,115.119 78.287 C 112.971 81.394,112.847 82.931,114.698 83.486 C 115.959 83.863,117.482 82.623,118.202 80.631 C 118.392 80.106,118.644 79.677,118.762 79.677 C 118.880 79.677,118.977 79.534,118.977 79.358 C 118.977 79.183,119.230 78.486,119.540 77.810 C 121.475 73.582,122.074 70.536,122.055 65.007 C 122.042 61.068,121.587 56.969,121.094 56.358 C 120.959 56.190,120.678 55.399,120.470 54.599 C 120.051 52.992,118.437 49.602,117.455 48.268 C 117.108 47.797,116.824 47.334,116.824 47.238 C 116.824 46.518,110.809 40.053,109.347 39.202 C 109.058 39.034,108.329 38.626,107.726 38.295 C 107.124 37.964,106.564 37.584,106.482 37.452 C 106.401 37.319,105.393 36.760,104.243 36.209 C 103.094 35.658,101.943 35.099,101.686 34.966 C 101.429 34.833,100.941 34.724,100.602 34.724 C 100.263 34.724,99.686 34.514,99.320 34.257 C 98.138 33.428,85.679 32.720,83.715 33.371 M274.966 33.425 C 274.078 33.564,272.903 33.913,272.356 34.201 C 271.808 34.489,271.110 34.724,270.804 34.724 C 270.499 34.724,270.038 34.832,269.781 34.963 C 269.524 35.095,268.829 35.416,268.237 35.676 C 267.645 35.936,266.978 36.253,266.756 36.379 C 266.534 36.506,266.092 36.723,265.773 36.862 C 265.454 37.000,265.121 37.231,265.033 37.374 C 264.944 37.517,264.176 38.024,263.324 38.501 C 261.171 39.707,255.680 45.042,254.883 46.703 C 254.741 46.999,254.272 47.847,253.840 48.587 C 253.409 49.327,252.871 50.296,252.644 50.740 C 252.417 51.184,252.124 51.729,251.993 51.952 C 251.455 52.862,250.338 56.725,250.335 57.685 C 250.334 58.011,250.127 58.641,249.875 59.085 C 249.181 60.310,249.173 70.078,249.865 71.056 C 250.124 71.422,250.336 72.113,250.336 72.591 C 250.336 73.069,250.445 73.739,250.577 74.079 C 250.709 74.419,251.038 75.424,251.306 76.312 C 251.575 77.201,251.910 78.084,252.050 78.275 C 252.191 78.466,252.566 79.133,252.885 79.756 C 254.871 83.637,255.765 84.389,257.219 83.399 C 258.366 82.618,258.475 81.376,257.508 80.106 C 257.160 79.648,256.788 79.001,256.683 78.668 C 256.577 78.334,256.378 78.062,256.240 78.062 C 256.102 78.062,255.989 77.843,255.989 77.575 C 255.989 77.307,255.811 76.853,255.594 76.566 C 255.377 76.278,255.195 75.855,255.190 75.626 C 255.186 75.396,255.036 75.063,254.858 74.885 C 252.803 72.830,252.815 57.715,254.873 55.076 C 255.001 54.912,255.326 54.172,255.594 53.432 C 255.862 52.692,256.208 51.922,256.362 51.721 C 256.696 51.284,256.997 50.780,257.818 49.283 C 258.158 48.664,258.612 48.089,258.828 48.007 C 259.043 47.924,259.219 47.721,259.219 47.555 C 259.219 47.231,262.984 43.338,263.297 43.338 C 263.400 43.338,263.888 42.964,264.380 42.507 C 265.977 41.026,266.124 40.915,266.484 40.915 C 266.680 40.915,267.237 40.612,267.722 40.242 C 268.208 39.872,268.795 39.569,269.026 39.569 C 269.258 39.569,269.448 39.458,269.448 39.322 C 269.448 39.185,269.842 38.990,270.323 38.887 C 270.804 38.784,271.501 38.545,271.871 38.355 C 275.494 36.500,283.729 35.817,287.214 37.083 C 287.436 37.163,287.827 37.204,288.082 37.172 C 288.338 37.141,288.967 37.315,289.482 37.559 C 289.996 37.803,290.523 37.938,290.652 37.858 C 290.780 37.778,291.274 37.949,291.748 38.237 C 292.223 38.526,292.837 38.762,293.114 38.762 C 293.390 38.762,293.686 38.943,293.772 39.166 C 293.857 39.388,294.218 39.569,294.575 39.569 C 294.932 39.569,295.366 39.741,295.539 39.950 C 295.713 40.159,296.394 40.584,297.053 40.893 C 297.711 41.203,298.250 41.577,298.250 41.724 C 298.250 41.871,298.406 41.992,298.595 41.992 C 299.080 41.992,303.096 45.744,303.096 46.196 C 303.096 46.401,303.263 46.568,303.468 46.568 C 303.894 46.568,307.359 51.657,307.800 52.930 C 307.961 53.394,308.214 53.939,308.364 54.141 C 308.513 54.343,308.855 55.236,309.124 56.124 C 309.393 57.012,309.721 58.017,309.854 58.357 C 309.986 58.697,310.094 59.430,310.094 59.986 C 310.094 60.541,310.223 61.124,310.379 61.281 C 310.873 61.775,310.355 70.873,309.800 71.454 C 309.666 71.594,309.555 72.018,309.554 72.396 C 309.553 72.773,309.372 73.429,309.150 73.853 C 308.929 74.277,308.748 74.898,308.748 75.233 C 308.748 75.568,308.567 75.993,308.345 76.178 C 308.122 76.362,307.941 76.691,307.941 76.909 C 307.941 77.127,307.712 77.627,307.433 78.020 C 305.552 80.670,305.092 82.422,306.060 83.251 C 307.597 84.567,309.110 83.326,311.074 79.139 C 311.733 77.732,312.373 76.395,312.496 76.167 C 312.619 75.940,312.806 75.243,312.911 74.620 C 313.016 73.996,313.188 73.486,313.293 73.486 C 314.565 73.486,314.492 58.832,313.207 56.270 C 313.018 55.894,312.794 55.222,312.710 54.778 C 312.509 53.718,310.447 49.354,309.646 48.292 C 309.300 47.834,309.017 47.319,309.017 47.148 C 309.017 46.977,308.893 46.837,308.742 46.837 C 308.590 46.837,308.359 46.565,308.228 46.231 C 307.694 44.870,302.446 39.548,301.279 39.184 C 300.945 39.080,300.673 38.882,300.673 38.744 C 300.673 38.606,300.519 38.493,300.331 38.493 C 300.142 38.493,299.567 38.158,299.052 37.749 C 298.537 37.339,297.268 36.598,296.231 36.100 C 295.195 35.603,294.137 35.090,293.880 34.960 C 293.623 34.830,293.135 34.724,292.796 34.724 C 292.457 34.724,291.880 34.514,291.513 34.257 C 290.255 33.374,278.931 32.805,274.966 33.425 M276.257 42.743 C 275.191 42.996,274.167 43.355,273.983 43.540 C 273.798 43.725,273.452 43.876,273.213 43.876 C 272.760 43.876,271.470 44.493,269.496 45.653 C 268.374 46.312,267.960 46.633,266.124 48.265 C 265.658 48.680,265.181 49.104,265.064 49.207 C 264.409 49.788,261.858 53.278,261.494 54.091 C 260.390 56.563,259.784 58.223,259.605 59.268 C 259.512 59.813,259.266 60.324,259.058 60.404 C 258.512 60.613,258.512 68.661,259.058 69.525 C 259.266 69.853,259.516 70.545,259.614 71.063 C 259.796 72.027,259.988 72.512,261.211 75.105 C 261.596 75.921,261.911 76.679,261.911 76.790 C 261.911 77.426,263.411 78.600,264.224 78.600 C 266.254 78.600,266.734 75.145,264.816 74.338 C 264.699 74.289,264.603 74.073,264.603 73.858 C 264.603 73.643,264.414 73.179,264.183 72.826 C 263.952 72.474,263.731 71.880,263.691 71.506 C 263.651 71.132,263.493 70.667,263.340 70.474 C 262.351 69.223,262.430 60.277,263.439 59.268 C 263.638 59.069,263.732 58.795,263.647 58.659 C 263.331 58.148,266.371 53.202,267.853 51.817 C 268.012 51.669,268.405 51.294,268.727 50.985 C 269.821 49.934,272.735 47.914,273.158 47.914 C 273.389 47.914,273.769 47.753,274.003 47.557 C 274.501 47.138,276.365 46.572,277.286 46.559 C 277.639 46.555,278.162 46.373,278.450 46.156 C 278.833 45.866,279.734 45.760,281.830 45.760 C 283.927 45.760,284.828 45.866,285.211 46.156 C 285.498 46.373,286.135 46.555,286.625 46.559 C 287.115 46.564,288.145 46.855,288.913 47.207 C 289.681 47.558,290.491 47.923,290.713 48.017 C 290.935 48.112,291.480 48.429,291.925 48.721 C 292.369 49.014,292.914 49.337,293.136 49.438 C 293.848 49.763,297.961 54.192,298.389 55.095 C 298.617 55.574,298.921 56.039,299.065 56.128 C 299.209 56.217,299.327 56.527,299.327 56.816 C 299.327 57.106,299.440 57.553,299.577 57.810 C 300.894 60.273,300.978 60.704,300.982 64.996 C 300.985 68.977,300.699 70.794,300.069 70.794 C 299.957 70.794,299.865 71.088,299.865 71.447 C 299.865 71.807,299.441 72.914,298.923 73.908 C 297.499 76.640,297.738 78.600,299.496 78.600 C 300.482 78.600,302.557 76.131,302.557 74.958 C 302.557 74.777,302.736 74.480,302.954 74.299 C 303.172 74.118,303.430 73.528,303.527 72.988 C 303.625 72.447,303.794 71.884,303.903 71.736 C 304.756 70.582,304.734 59.192,303.877 58.291 C 303.743 58.150,303.634 57.703,303.634 57.297 C 303.634 56.891,303.512 56.484,303.363 56.392 C 303.079 56.217,302.019 54.162,302.019 53.788 C 302.019 51.832,293.845 44.709,290.754 43.972 C 290.361 43.878,289.872 43.669,289.666 43.506 C 288.266 42.397,279.756 41.912,276.257 42.743 M86.815 62.359 C 85.930 62.573,85.012 62.923,84.775 63.137 C 84.539 63.351,84.230 63.526,84.089 63.526 C 83.508 63.526,80.530 66.931,80.206 67.968 C 80.021 68.560,79.705 69.501,79.504 70.059 C 79.210 70.875,79.139 74.581,79.139 88.969 C 79.139 103.105,79.068 106.864,78.802 106.866 C 78.617 106.867,78.125 107.045,77.708 107.263 C 77.291 107.480,76.322 107.725,75.555 107.808 C 73.251 108.057,71.211 108.559,70.983 108.934 C 70.864 109.128,70.574 109.287,70.338 109.287 C 68.908 109.287,65.594 112.815,64.902 115.074 C 64.542 116.246,64.618 132.526,64.991 134.320 C 65.199 135.321,65.709 136.659,66.360 137.909 C 66.578 138.328,66.756 138.810,66.756 138.981 C 66.756 139.152,67.107 140.020,67.534 140.911 C 67.962 141.802,68.382 142.712,68.468 142.934 C 68.553 143.156,68.989 143.943,69.436 144.684 C 69.883 145.424,70.332 146.211,70.434 146.433 C 70.537 146.655,70.690 146.898,70.774 146.972 C 70.944 147.120,71.338 147.798,72.868 150.577 C 74.244 153.076,74.411 153.353,74.879 153.901 C 75.100 154.161,75.436 154.764,75.624 155.240 C 75.812 155.716,76.135 156.246,76.341 156.417 C 76.547 156.588,76.716 156.889,76.716 157.085 C 76.716 157.282,77.063 157.964,77.487 158.600 C 78.235 159.722,78.920 160.869,80.350 163.392 C 80.728 164.058,81.274 164.966,81.564 165.410 C 81.854 165.855,82.223 166.460,82.383 166.756 C 82.544 167.052,82.909 167.719,83.195 168.237 C 83.648 169.060,83.714 169.739,83.714 173.630 L 83.715 178.080 84.539 178.567 C 85.378 179.063,86.436 178.999,87.145 178.411 C 87.785 177.880,87.609 167.932,86.945 167.087 C 86.649 166.710,86.406 166.279,86.406 166.127 C 86.406 165.976,85.922 165.123,85.330 164.231 C 84.738 163.340,84.253 162.419,84.253 162.185 C 84.253 161.951,84.076 161.692,83.860 161.609 C 83.643 161.526,83.387 161.196,83.290 160.877 C 83.193 160.557,82.842 159.933,82.511 159.489 C 82.179 159.044,81.818 158.378,81.707 158.008 C 81.597 157.638,81.184 156.911,80.790 156.393 C 80.396 155.875,79.894 155.087,79.674 154.643 C 79.453 154.199,79.122 153.676,78.937 153.480 C 78.752 153.284,78.600 152.967,78.600 152.776 C 78.600 152.584,78.055 151.614,77.389 150.620 C 76.723 149.627,76.178 148.656,76.178 148.464 C 76.178 148.272,75.996 147.964,75.774 147.779 C 75.552 147.595,75.370 147.354,75.370 147.244 C 75.370 146.968,73.147 143.106,72.877 142.912 C 72.527 142.661,71.602 140.820,71.602 140.374 C 71.602 140.150,71.488 139.755,71.350 139.498 C 71.211 139.241,70.779 138.365,70.390 137.550 C 70.001 136.736,69.584 135.888,69.463 135.666 C 68.237 133.413,67.738 117.103,68.844 115.449 C 70.052 113.644,72.694 111.985,74.370 111.980 C 74.634 111.979,75.138 111.790,75.490 111.560 C 75.919 111.279,76.601 111.168,77.566 111.223 L 79.004 111.306 79.074 122.862 C 79.154 135.972,79.055 135.397,81.237 135.397 C 83.316 135.397,83.158 138.108,83.168 102.250 C 83.175 73.876,83.224 70.026,83.580 69.889 C 83.802 69.804,83.984 69.531,83.984 69.282 C 83.984 68.593,86.592 66.218,87.349 66.218 C 87.701 66.218,88.065 66.097,88.156 65.949 C 88.742 65.001,92.444 66.075,94.446 67.774 C 96.157 69.226,96.088 67.974,96.093 97.940 C 96.096 122.278,96.143 125.318,96.524 126.121 C 97.252 127.656,99.132 127.613,99.846 126.045 C 100.041 125.618,100.135 120.375,100.135 109.969 C 100.135 101.475,100.208 94.334,100.298 94.100 C 100.500 93.574,104.778 93.492,106.307 93.984 C 108.476 94.683,110.539 95.916,110.773 96.655 C 110.864 96.940,111.039 97.174,111.162 97.174 C 111.493 97.174,112.578 99.029,112.973 100.269 C 113.230 101.077,113.317 104.449,113.320 113.749 L 113.324 126.151 113.947 126.736 C 114.695 127.438,115.402 127.472,116.216 126.845 L 116.819 126.380 116.889 112.921 L 116.958 99.462 120.292 99.386 C 122.847 99.328,123.728 99.398,124.061 99.686 C 124.300 99.893,124.832 100.142,125.245 100.240 C 126.076 100.438,129.206 103.460,129.206 104.065 C 129.206 104.276,129.319 104.659,129.457 104.916 C 130.130 106.168,130.283 108.401,130.283 117.031 L 130.283 126.151 130.906 126.736 C 131.719 127.500,132.213 127.475,133.234 126.615 L 134.074 125.909 134.038 115.512 L 134.002 105.114 137.156 105.038 C 139.633 104.978,140.445 105.051,140.940 105.375 C 141.286 105.602,141.785 105.788,142.050 105.789 C 142.775 105.791,145.539 108.596,146.304 110.105 L 146.978 111.435 146.882 133.308 C 146.787 155.093,146.713 156.869,145.807 159.354 C 145.563 160.020,145.363 160.831,145.361 161.155 C 145.358 161.479,145.234 161.821,145.083 161.914 C 144.933 162.007,144.625 162.527,144.398 163.070 C 143.937 164.173,143.003 165.276,142.530 165.276 C 142.044 165.276,141.163 166.405,140.274 168.170 C 138.779 171.137,139.195 178.414,140.884 178.838 C 142.767 179.310,143.184 178.475,143.195 174.208 C 143.204 170.108,143.181 170.174,145.394 167.995 C 146.306 167.097,147.206 166.088,147.395 165.752 C 148.238 164.253,148.856 162.735,148.856 162.162 C 148.856 161.819,148.977 161.464,149.125 161.373 C 149.273 161.281,149.394 160.814,149.394 160.334 C 149.394 159.854,149.511 159.345,149.653 159.203 C 149.796 159.060,150.038 158.067,150.192 156.995 C 150.345 155.924,150.592 154.197,150.740 153.158 C 150.899 152.041,151.009 143.489,151.009 132.245 C 151.009 111.865,150.934 110.501,149.688 108.479 C 149.551 108.257,149.254 107.651,149.029 107.133 C 148.357 105.592,144.616 102.288,143.543 102.288 C 143.274 102.288,142.815 102.122,142.523 101.919 C 141.760 101.390,140.359 101.193,135.896 100.988 L 131.953 100.808 130.349 99.300 C 129.467 98.470,128.031 97.455,127.158 97.042 C 126.286 96.630,125.330 96.160,125.034 95.998 C 124.724 95.829,122.495 95.663,119.785 95.608 L 115.074 95.511 113.863 94.245 C 110.830 91.074,108.088 89.933,103.454 89.915 C 102.097 89.910,100.795 89.832,100.560 89.742 C 100.184 89.598,100.135 88.516,100.135 80.337 C 100.135 74.466,100.036 71.034,99.865 70.929 C 99.717 70.837,99.596 70.353,99.596 69.852 C 99.596 67.922,97.341 64.746,95.117 63.544 C 94.546 63.235,93.896 62.877,93.674 62.747 C 92.233 61.910,89.354 61.747,86.815 62.359 M278.869 62.372 C 278.055 62.588,277.207 62.920,276.985 63.110 C 276.763 63.300,276.440 63.502,276.268 63.558 C 275.708 63.741,272.678 66.784,272.678 67.163 C 272.678 67.366,272.557 67.607,272.409 67.699 C 272.261 67.790,272.140 68.191,272.139 68.589 C 272.138 68.988,271.894 69.713,271.597 70.201 C 271.069 71.067,271.056 71.523,271.067 88.867 L 271.078 106.645 270.104 107.142 C 269.567 107.416,268.444 107.714,267.606 107.806 C 265.734 108.012,263.494 108.505,263.094 108.800 C 262.931 108.920,262.204 109.331,261.479 109.714 C 260.083 110.450,258.681 111.633,258.681 112.075 C 258.681 112.221,258.511 112.531,258.304 112.765 C 258.097 112.999,257.612 113.758,257.227 114.453 L 256.528 115.716 256.537 124.278 C 256.545 131.193,256.621 132.969,256.931 133.513 C 257.143 133.883,257.320 134.496,257.326 134.876 C 257.331 135.255,257.638 136.193,258.008 136.960 C 258.378 137.728,258.681 138.583,258.681 138.862 C 258.681 139.141,258.854 139.512,259.065 139.688 C 259.276 139.863,259.636 140.555,259.865 141.226 C 260.093 141.896,260.647 143.041,261.096 143.770 C 261.544 144.499,261.911 145.275,261.911 145.495 C 261.911 145.715,262.032 145.895,262.180 145.895 C 262.328 145.895,262.450 146.017,262.450 146.167 C 262.450 146.317,262.849 147.013,263.338 147.715 C 263.826 148.416,264.388 149.389,264.586 149.876 C 264.784 150.364,265.278 151.220,265.683 151.779 C 266.088 152.339,266.504 153.060,266.606 153.383 C 266.709 153.706,266.906 153.970,267.044 153.970 C 267.182 153.970,267.295 154.157,267.295 154.385 C 267.295 154.749,268.224 156.291,268.666 156.662 C 268.755 156.736,268.906 157.121,269.003 157.516 C 269.100 157.912,269.459 158.578,269.802 158.997 C 270.144 159.415,270.648 160.242,270.920 160.834 C 271.193 161.427,271.700 162.286,272.047 162.744 C 272.394 163.202,272.678 163.698,272.678 163.846 C 272.678 163.995,272.921 164.335,273.217 164.603 C 273.513 164.871,273.755 165.230,273.755 165.402 C 273.755 165.573,274.240 166.517,274.832 167.499 L 275.908 169.284 275.908 173.641 C 275.908 177.767,275.939 178.026,276.488 178.501 C 277.337 179.238,278.843 179.030,279.471 178.089 C 279.974 177.336,279.686 167.859,279.139 167.160 C 278.849 166.790,278.610 166.285,278.606 166.039 C 278.603 165.792,278.509 165.550,278.398 165.500 C 278.097 165.366,276.447 162.598,276.447 162.227 C 276.447 162.051,276.205 161.755,275.908 161.570 C 275.612 161.385,275.367 161.023,275.363 160.765 C 275.359 160.507,274.995 159.820,274.555 159.239 C 274.115 158.657,273.755 158.016,273.755 157.814 C 273.755 157.452,273.534 157.122,272.611 156.105 C 272.352 155.819,272.140 155.463,272.140 155.313 C 272.140 154.957,271.590 154.003,270.996 153.328 C 270.737 153.033,270.525 152.627,270.525 152.426 C 270.525 152.225,270.040 151.331,269.448 150.439 C 268.856 149.547,268.371 148.641,268.371 148.425 C 268.371 148.208,268.190 147.962,267.968 147.877 C 267.746 147.791,267.564 147.534,267.564 147.305 C 267.564 147.076,267.279 146.513,266.930 146.055 C 266.581 145.597,266.034 144.707,265.713 144.078 C 265.393 143.449,265.012 142.934,264.867 142.934 C 264.722 142.934,264.599 142.722,264.594 142.463 C 264.590 142.204,264.408 141.757,264.191 141.469 C 263.973 141.182,263.795 140.707,263.795 140.414 C 263.795 140.121,263.636 139.690,263.442 139.456 C 263.248 139.222,262.872 138.486,262.607 137.820 C 262.342 137.153,262.016 136.427,261.882 136.205 C 261.607 135.749,261.611 135.758,261.005 133.917 C 259.860 130.435,260.510 114.437,261.797 114.408 C 261.956 114.404,262.380 114.082,262.739 113.693 C 263.560 112.801,265.288 111.992,266.387 111.984 C 266.850 111.981,267.384 111.791,267.574 111.563 C 267.829 111.255,268.330 111.168,269.503 111.226 L 271.088 111.306 271.070 122.722 C 271.049 135.884,270.958 135.399,273.465 135.395 C 275.504 135.391,275.370 137.731,275.370 102.112 L 275.370 70.280 276.054 69.258 C 277.033 67.795,278.858 66.218,279.572 66.218 C 279.908 66.218,280.258 66.097,280.350 65.949 C 280.554 65.618,283.445 65.587,283.445 65.915 C 283.445 66.045,283.808 66.223,284.251 66.312 C 285.282 66.518,287.403 68.465,287.904 69.666 C 288.232 70.449,288.291 74.833,288.291 98.295 L 288.291 126.000 288.951 126.661 C 289.699 127.409,290.594 127.496,291.386 126.898 C 291.913 126.500,291.926 126.132,291.998 110.439 C 292.049 99.269,292.162 94.279,292.368 94.031 C 292.726 93.599,297.855 93.521,298.116 93.943 C 298.207 94.092,298.571 94.213,298.923 94.213 C 299.276 94.213,299.639 94.334,299.731 94.482 C 299.822 94.630,300.116 94.751,300.383 94.751 C 301.384 94.751,304.711 98.428,304.711 99.535 C 304.711 99.808,304.890 100.267,305.109 100.554 C 305.447 100.998,305.506 102.972,305.502 113.719 L 305.498 126.362 306.114 126.836 C 306.892 127.435,307.640 127.438,308.410 126.845 L 309.013 126.380 309.083 112.921 L 309.152 99.462 312.486 99.386 C 314.902 99.331,315.940 99.406,316.255 99.657 C 316.494 99.848,317.157 100.242,317.729 100.532 C 321.798 102.597,322.476 104.976,322.476 117.190 C 322.476 125.800,322.510 126.461,322.969 126.876 C 323.669 127.510,324.461 127.429,325.417 126.625 L 326.245 125.928 326.245 116.046 C 326.245 108.535,326.165 106.084,325.911 105.830 C 325.029 104.949,331.981 104.510,333.125 105.375 C 333.412 105.592,333.916 105.774,334.245 105.779 C 334.590 105.784,335.095 106.128,335.440 106.595 C 335.768 107.039,336.142 107.402,336.270 107.402 C 336.584 107.402,338.088 109.065,338.090 109.414 C 338.091 109.566,338.271 110.033,338.490 110.453 C 338.951 111.337,339.127 154.634,338.674 155.519 C 338.541 155.777,338.356 156.752,338.263 157.684 C 338.170 158.616,337.947 159.646,337.767 159.972 C 337.587 160.298,337.469 160.759,337.505 160.995 C 337.541 161.232,337.384 161.579,337.157 161.768 C 336.929 161.957,336.743 162.354,336.743 162.650 C 336.743 162.958,336.014 163.896,335.043 164.838 C 332.988 166.830,332.167 167.971,332.167 168.830 C 332.167 169.185,332.015 169.626,331.830 169.812 C 330.688 170.954,331.467 178.735,332.724 178.735 C 332.985 178.735,333.245 178.872,333.301 179.041 C 333.373 179.259,333.591 179.239,334.058 178.973 C 335.298 178.267,335.379 177.977,335.388 174.208 C 335.398 170.097,335.405 170.080,337.656 167.839 C 338.560 166.939,339.448 165.964,339.628 165.672 C 340.275 164.626,341.050 162.776,341.050 162.277 C 341.050 161.998,341.159 161.559,341.293 161.302 C 341.426 161.045,341.684 159.987,341.866 158.950 C 342.048 157.914,342.290 156.945,342.405 156.797 C 342.860 156.210,342.980 152.267,343.110 133.647 C 343.254 113.202,343.141 110.469,342.094 108.961 C 341.816 108.560,341.588 108.104,341.588 107.948 C 341.588 106.673,337.056 102.288,335.738 102.288 C 335.468 102.288,335.009 102.122,334.717 101.919 C 333.954 101.390,332.552 101.193,328.086 100.988 L 324.139 100.808 322.450 99.234 C 321.520 98.368,320.510 97.544,320.205 97.402 C 319.900 97.260,319.226 96.921,318.708 96.648 C 318.190 96.375,317.670 96.210,317.552 96.282 C 317.435 96.354,317.144 96.251,316.906 96.053 C 316.592 95.792,315.197 95.669,311.817 95.604 L 307.161 95.515 306.009 94.258 C 303.096 91.082,300.205 89.906,295.314 89.906 C 291.849 89.906,292.130 90.832,292.006 79.002 L 291.902 69.044 291.089 67.564 C 290.104 65.769,288.741 64.316,287.326 63.552 C 286.746 63.239,286.090 62.877,285.868 62.747 C 284.418 61.905,281.269 61.736,278.869 62.372 M47.587 205.316 L 47.510 207.941 46.366 208.024 C 44.522 208.157,44.585 209.960,46.433 209.960 L 47.645 209.960 47.645 214.132 L 47.645 218.304 48.445 218.304 L 49.246 218.304 49.320 214.199 L 49.394 210.094 50.538 210.011 C 51.643 209.932,51.682 209.897,51.682 209.017 C 51.682 208.138,51.643 208.103,50.538 208.024 L 49.394 207.941 49.317 205.316 L 49.240 202.692 48.452 202.692 L 47.664 202.692 47.587 205.316 M91.174 202.859 C 91.069 202.964,90.983 204.181,90.983 205.563 L 90.983 208.075 89.754 208.075 C 87.910 208.075,87.982 209.773,89.832 209.907 L 90.969 209.990 91.043 214.080 L 91.117 218.170 91.925 218.170 L 92.732 218.170 92.806 214.080 L 92.881 209.990 94.018 209.907 C 95.805 209.778,95.929 208.152,94.161 208.024 L 93.001 207.941 92.867 205.384 C 92.732 202.829,92.119 201.914,91.174 202.859 M296.097 210.498 L 296.097 218.304 296.865 218.304 L 297.632 218.304 297.805 216.083 C 297.900 214.862,297.978 212.349,297.978 210.498 C 297.978 208.647,297.900 206.134,297.805 204.913 L 297.632 202.692 296.865 202.692 L 296.097 202.692 296.097 210.498 M324.899 205.384 L 324.899 208.075 323.671 208.075 C 321.827 208.075,321.899 209.773,323.748 209.907 L 324.885 209.990 324.959 214.080 L 325.034 218.170 325.841 218.170 L 326.649 218.170 326.723 214.080 L 326.797 209.990 327.934 209.907 C 329.784 209.773,329.855 208.075,328.012 208.075 L 326.783 208.075 326.783 205.384 L 326.783 202.692 325.841 202.692 L 324.899 202.692 324.899 205.384 M128.398 204.653 C 128.398 205.456,128.321 206.848,128.227 207.748 L 128.056 209.384 127.262 208.797 C 124.482 206.744,120.054 209.443,120.054 213.190 C 120.054 218.242,126.738 220.134,129.346 215.820 C 129.833 215.015,129.879 214.443,129.879 209.152 L 129.879 203.365 129.139 203.280 C 128.412 203.196,128.398 203.221,128.398 204.653 M255.989 206.146 C 255.989 209.499,255.938 209.614,254.808 208.808 C 251.971 206.784,247.645 209.430,247.645 213.190 C 247.645 218.425,254.565 220.184,256.950 215.554 C 257.580 214.331,257.604 214.082,257.604 208.757 L 257.604 203.230 256.797 203.230 L 255.989 203.230 255.989 206.146 M283.848 203.501 C 283.490 204.081,283.573 213.299,283.948 214.589 C 285.553 220.111,293.674 218.943,293.674 213.190 C 293.674 209.442,289.224 206.760,286.430 208.824 L 285.599 209.437 285.597 207.747 C 285.591 203.865,284.804 201.954,283.848 203.501 M56.662 208.584 C 53.945 209.838,52.862 212.774,54.172 215.338 C 55.530 217.995,58.211 218.965,60.616 217.670 L 61.878 216.991 61.962 217.580 C 62.191 219.188,63.468 218.450,63.666 216.595 C 64.336 210.338,61.037 206.565,56.662 208.584 M70.085 208.247 C 67.257 208.869,66.452 211.126,66.546 218.170 L 66.622 223.822 67.362 223.908 L 68.102 223.993 68.106 220.812 C 68.111 217.044,68.240 216.700,69.322 217.551 C 71.220 219.044,74.697 217.980,75.876 215.545 C 77.812 211.545,74.436 207.290,70.085 208.247 M100.617 208.341 C 98.640 208.937,97.174 211.002,97.174 213.190 C 97.174 218.425,104.094 220.184,106.479 215.554 C 108.560 211.515,104.925 207.043,100.617 208.341 M143.058 208.565 C 138.871 210.530,139.225 216.589,143.612 218.036 C 144.854 218.447,146.548 218.196,147.477 217.465 L 148.180 216.912 148.327 217.541 C 148.595 218.691,149.862 218.551,150.088 217.347 C 151.238 211.217,147.460 206.498,143.058 208.565 M151.817 208.301 C 151.817 208.712,154.210 217.770,154.400 218.077 C 154.620 218.432,156.128 218.343,156.252 217.968 C 156.313 217.783,156.698 216.509,157.107 215.138 C 157.991 212.174,158.164 212.158,159.016 214.954 C 160.055 218.364,160.046 218.350,161.023 218.254 C 161.835 218.174,161.904 218.077,162.335 216.420 C 162.585 215.458,163.121 213.459,163.525 211.978 C 164.666 207.798,164.652 208.075,163.731 208.075 C 162.902 208.075,162.194 209.723,161.627 212.974 C 161.261 215.065,160.834 215.083,160.175 213.034 C 158.657 208.318,157.725 207.998,156.504 211.777 C 155.504 214.869,155.316 215.105,154.886 213.810 C 154.587 212.911,153.432 208.433,153.432 208.173 C 153.432 208.119,153.069 208.075,152.624 208.075 C 152.180 208.075,151.817 208.177,151.817 208.301 M263.592 208.304 C 260.929 209.071,259.398 212.485,260.531 215.128 C 262.417 219.528,268.669 219.190,269.853 214.624 C 270.886 210.642,267.464 207.188,263.592 208.304 M272.615 211.020 C 272.335 216.917,274.231 219.330,278.059 217.951 C 278.772 217.694,279.310 217.621,279.363 217.774 C 279.412 217.918,279.806 218.035,280.238 218.035 L 281.023 218.035 281.023 213.055 L 281.023 208.075 280.215 208.075 L 279.408 208.075 279.408 211.266 C 279.408 215.737,278.260 217.341,275.797 216.312 C 274.494 215.768,274.293 215.097,274.293 211.288 L 274.293 208.075 273.524 208.075 L 272.755 208.075 272.615 211.020 M304.116 208.327 C 300.207 209.582,299.486 215.047,302.916 217.424 C 305.375 219.128,311.088 217.621,309.075 215.799 C 308.631 215.398,308.534 215.405,307.797 215.890 C 306.325 216.860,303.993 216.513,303.005 215.176 C 302.067 213.907,302.468 213.728,306.263 213.728 C 310.022 213.728,310.363 213.609,310.363 212.298 C 310.363 209.618,306.918 207.428,304.116 208.327 M334.533 208.341 C 330.589 209.530,329.822 215.130,333.290 217.425 C 334.780 218.411,337.179 218.477,338.157 217.559 C 338.958 216.807,339.107 216.808,339.214 217.564 C 339.281 218.038,339.475 218.170,340.108 218.170 L 340.915 218.170 340.992 215.543 C 341.156 209.975,338.593 207.118,334.533 208.341 M346.706 208.662 C 346.011 209.021,345.154 209.782,344.687 210.453 L 343.876 211.620 343.784 216.872 C 343.670 223.324,343.767 224.021,344.766 223.906 L 345.491 223.822 345.567 220.390 C 345.608 218.503,345.704 216.958,345.779 216.958 C 345.855 216.958,346.286 217.231,346.737 217.564 C 348.038 218.525,350.390 218.412,351.736 217.324 C 356.512 213.464,352.102 205.870,346.706 208.662 M132.705 213.336 L 132.705 218.304 133.513 218.304 L 134.320 218.304 134.320 214.846 C 134.320 211.856,134.388 211.309,134.823 210.808 C 135.364 210.185,137.101 209.989,137.427 210.516 C 137.605 210.804,138.627 210.092,138.627 209.680 C 138.627 209.050,137.023 208.513,134.930 208.443 L 132.705 208.367 132.705 213.336 M307.833 210.606 C 309.411 212.183,309.183 212.382,305.803 212.382 C 302.516 212.382,302.331 212.292,303.175 211.095 C 304.387 209.380,306.396 209.168,307.833 210.606 M60.661 210.769 C 62.895 212.730,61.551 216.420,58.603 216.420 C 57.055 216.420,55.451 214.754,55.451 213.147 C 55.451 210.494,58.673 209.024,60.661 210.769 M73.647 210.875 C 76.288 213.515,73.283 217.721,69.978 216.012 C 69.543 215.787,69.004 215.248,68.780 214.814 C 67.086 211.538,71.079 208.306,73.647 210.875 M104.320 210.897 C 105.425 212.068,105.659 213.057,105.130 214.321 C 103.706 217.731,99.058 216.866,99.058 213.190 C 99.058 210.201,102.322 208.779,104.320 210.897 M127.214 210.875 C 128.479 212.140,128.534 214.074,127.344 215.406 C 125.332 217.658,121.162 215.571,121.807 212.634 C 122.371 210.067,125.415 209.076,127.214 210.875 M147.178 210.881 C 150.105 213.564,146.275 218.291,143.242 215.738 C 142.149 214.819,141.719 213.481,142.124 212.256 C 142.898 209.910,145.380 209.234,147.178 210.881 M254.142 210.383 C 255.551 211.111,256.148 212.887,255.487 214.382 C 254.020 217.699,249.529 216.801,249.529 213.190 C 249.529 210.606,251.847 209.195,254.142 210.383 M266.778 210.419 C 268.207 211.263,268.713 213.063,267.963 214.641 C 266.514 217.696,261.884 216.543,261.921 213.136 C 261.947 210.682,264.657 209.166,266.778 210.419 M290.679 210.601 C 293.026 212.725,291.803 216.285,288.727 216.285 C 285.774 216.285,284.433 212.693,286.647 210.715 C 287.688 209.785,289.713 209.728,290.679 210.601 M337.721 210.560 C 340.397 212.394,339.095 216.420,335.825 216.420 C 334.032 216.420,332.381 214.247,332.827 212.474 C 333.367 210.320,335.916 209.324,337.721 210.560 M351.041 211.005 C 353.098 213.062,351.743 216.420,348.856 216.420 C 347.202 216.420,345.626 214.844,345.626 213.190 C 345.626 211.535,347.202 209.960,348.856 209.960 C 349.821 209.960,350.156 210.120,351.041 211.005 M256.470 231.965 L 256.393 234.590 255.233 234.673 C 253.460 234.801,253.590 236.427,255.384 236.557 L 256.528 236.639 256.528 240.796 L 256.528 244.953 257.307 244.953 L 258.086 244.953 258.282 240.781 L 258.477 236.608 259.516 236.608 C 260.393 236.608,260.581 236.506,260.720 235.951 C 260.951 235.031,260.677 234.724,259.623 234.724 C 258.450 234.724,258.406 234.632,258.220 231.760 L 258.063 229.341 257.305 229.341 L 256.547 229.341 256.470 231.965 M343.805 237.079 L 343.876 244.818 344.519 244.909 C 345.559 245.056,345.617 244.631,345.622 236.810 L 345.626 229.341 344.680 229.341 L 343.733 229.341 343.805 237.079 M265.839 235.004 C 264.004 235.553,262.228 238.372,262.534 240.252 C 263.427 245.759,270.659 246.558,272.306 241.332 C 273.564 237.339,269.928 233.781,265.839 235.004 M288.694 235.021 C 285.025 236.149,284.438 241.565,287.723 243.989 C 289.433 245.251,292.106 245.151,293.809 243.762 L 294.616 243.103 294.034 242.511 L 293.452 241.919 292.522 242.494 C 290.095 243.994,287.214 242.553,287.214 239.838 C 287.214 237.300,290.518 235.521,292.479 237.004 C 293.195 237.545,293.754 237.512,294.133 236.905 C 294.975 235.557,291.203 234.250,288.694 235.021 M300.023 235.005 C 297.161 235.861,295.822 240.023,297.557 242.671 C 298.877 244.687,302.049 245.469,303.810 244.213 C 304.277 243.880,304.723 243.607,304.801 243.607 C 304.879 243.607,304.981 243.880,305.028 244.213 C 305.163 245.160,306.518 245.219,306.752 244.287 C 308.180 238.598,304.586 233.641,300.023 235.005 M311.849 235.130 C 311.337 235.407,311.013 235.461,310.952 235.279 C 310.900 235.122,310.443 234.993,309.937 234.993 L 309.017 234.993 309.017 237.914 C 309.017 243.444,309.251 244.994,310.068 244.900 L 310.767 244.818 310.902 241.454 C 311.080 236.999,311.908 235.830,314.320 236.626 C 315.625 237.057,315.841 237.699,315.967 241.521 L 316.080 244.953 316.856 244.953 L 317.631 244.953 317.631 241.386 C 317.630 237.467,317.348 236.456,315.969 235.446 C 314.996 234.733,312.884 234.571,311.849 235.130 M322.831 235.247 C 319.401 236.804,319.244 241.903,322.557 244.096 C 324.572 245.429,328.921 244.689,328.933 243.011 C 328.939 242.197,328.052 241.963,327.168 242.545 C 323.824 244.750,320.119 240.313,322.880 237.410 C 323.826 236.415,326.516 236.309,327.529 237.225 C 328.010 237.660,328.067 237.651,328.625 237.057 C 330.107 235.480,325.493 234.038,322.831 235.247 M334.455 235.048 C 331.413 236.108,330.350 240.472,332.499 243.079 C 334.206 245.149,337.650 245.473,339.632 243.748 L 340.377 243.101 339.811 242.526 L 339.245 241.952 338.330 242.509 C 336.307 243.743,333.244 242.712,333.244 240.798 C 333.244 240.438,333.745 240.377,336.724 240.377 C 341.068 240.377,341.402 240.176,340.782 237.942 C 340.103 235.500,337.100 234.126,334.455 235.048 M338.379 237.126 C 339.937 238.684,339.565 239.031,336.339 239.031 C 333.810 239.031,333.513 238.981,333.513 238.552 C 333.513 236.532,336.816 235.563,338.379 237.126 M269.214 237.030 C 271.229 238.072,271.221 241.416,269.200 242.609 C 267.609 243.549,265.521 242.931,264.742 241.290 C 263.335 238.325,266.284 235.515,269.214 237.030 M303.945 237.696 C 305.144 238.957,305.288 240.003,304.452 241.373 C 302.796 244.089,298.934 243.246,298.613 240.098 C 298.287 236.914,301.727 235.365,303.945 237.696 " stroke="none" fill="#aa8a9a" fill-rule="evenodd"></path></g></svg>